<svg width="158" height="158" viewBox="0 0 158 158" fill="none" xmlns="http://www.w3.org/2000/svg">
<rect width="158" height="158" rx="79" fill="#E8EAED"/>
<path fill-rule="evenodd" clip-rule="evenodd" d="M49.4268 33.1829C42.991 34.4352 38.0594 39.042 36.4789 45.2779C36.1002 46.7722 36.0418 47.4136 36.0413 50.0813L36.0407 53.1602L35.3127 54.2391C33.2254 57.3328 32.5917 60.0729 33.2475 63.1696C33.7265 65.4318 35.2207 67.8696 36.9263 69.1714L37.8074 69.8439L36.9694 70.5154C35.2975 71.8552 34.2215 73.4042 33.4888 75.5256C33.4267 75.7054 33.3739 75.8638 33.3291 76.0241C33.0961 76.8579 33.8447 77.5959 34.7105 77.5959C35.5136 77.5959 36.1085 76.9456 36.3965 76.1959C36.4755 75.9903 36.5769 75.7759 36.7082 75.4986C37.3783 74.0827 38.6676 72.7319 39.9405 72.1116C40.7736 71.706 45.2338 70.549 46.0581 70.5249C46.3818 70.5154 46.4627 70.6116 46.4641 71.0075C46.4663 71.6029 47.241 73.3269 47.7518 73.8725L48.119 74.2648L47.2987 75.2727C45.9061 76.9839 44.8603 79.6532 44.8484 81.5271C44.8454 82.0204 44.8423 82.0216 43.5428 82.0256C42.1337 82.0299 41.0668 82.3932 40.4606 83.0752C40.1486 83.4262 39.9371 83.4602 38.0661 83.4602H36.0138L36.0463 81.6005C36.0608 80.7698 35.3914 80.0886 34.5605 80.0886C33.742 80.0886 33.0779 80.7503 33.0775 81.5688C33.0774 81.7988 33.0774 82.0395 33.0774 82.2914C33.0774 88.6283 33.0957 88.7243 34.6262 90.3861C35.7315 91.5864 36.8765 92.1143 38.678 92.2546C39.8457 92.3454 40.2406 92.4511 40.5706 92.7613C41.2876 93.4357 42.3277 93.7638 43.9348 93.823L45.4496 93.8787L45.9571 94.6948C46.7081 95.9026 47.7918 96.8712 49.1291 97.53L50.3176 98.1157H55.2621H60.2066L61.2343 97.6334C62.6689 96.9603 64.0207 95.6554 64.8707 94.1231C64.8819 94.103 65.3479 94.3173 65.9063 94.5993C66.4649 94.8811 67.3131 95.1657 67.7915 95.2315L68.6613 95.3513L69.061 96.6212C69.6077 98.3577 70.5007 99.7602 71.8859 101.057C72.7278 101.845 73.0526 102.276 73.0526 102.605C73.0526 102.856 72.9919 103.062 72.9179 103.064C72.8439 103.065 71.4035 103.381 69.7173 103.765C65.7978 104.658 64.6239 105.209 62.7945 107.017C61.8443 107.956 61.2589 108.721 60.8671 109.534C59.8204 111.708 59.7575 112.24 59.7575 118.923V124.999H78.5902C79.7554 124.999 80.8526 124.999 81.8861 125C96.8 125.003 98.433 125.003 99.378 124.197C99.4942 124.097 99.6 123.986 99.7188 123.861C99.7857 123.79 99.8568 123.715 99.9361 123.636C101.267 122.305 101.593 120.236 100.737 118.558C100.348 117.794 99.1704 116.65 98.5809 116.463C98.2056 116.343 98.1988 116.273 98.2466 112.995L98.2954 109.649L106.868 106.222C111.582 104.338 115.382 102.74 115.312 102.673C115.241 102.605 110.737 100.772 105.302 98.598L95.4208 94.6457L95.3736 100.84L95.3263 107.034L94.4752 106.322C93.013 105.098 91.6292 104.532 88.141 103.73C84.248 102.835 84.2186 102.797 86.0772 101.057C87.4617 99.7607 88.3553 98.3579 88.9012 96.6244L89.2998 95.3576L90.1146 95.2402C91.1342 95.0931 92.5428 94.4619 93.3204 93.8038C94.1339 93.1152 94.9267 91.6705 95.1729 90.4283L95.3777 89.3943H110.189H125L124.938 82.9657C124.876 76.5459 124.875 76.5354 124.41 75.3247C124.153 74.6581 123.67 73.6583 123.336 73.1034C122.638 71.9423 120.964 70.314 119.919 69.7806L119.203 69.415L119.588 68.8401C120.31 67.7625 121.346 65.3908 121.645 64.1293C121.908 63.0261 121.937 61.8372 121.879 54.5089C121.817 46.4399 121.8 46.1002 121.408 44.808C119.675 39.0935 115.16 34.7815 109.404 33.3447C107.518 32.8739 103.586 32.9185 101.683 33.4323C98.5543 34.2769 96.0705 35.7734 93.7986 38.1825C91.5933 40.5214 90.081 43.5462 89.5922 46.5967C89.4842 47.2698 89.4042 50.9069 89.4035 55.1715C89.4019 63.1216 89.477 63.9826 90.3618 66.1617C90.597 66.7414 91.0884 67.6832 91.4537 68.2546C91.8189 68.8259 92.0888 69.3224 92.0534 69.3579C92.018 69.3933 91.6425 69.6553 91.2186 69.9401L90.4481 70.458L89.0717 69.7608C86.9152 68.6682 85.8152 68.535 78.9582 68.535C72.2037 68.535 71.1288 68.6655 68.8912 69.7569C67.6632 70.3559 67.4746 70.4017 67.1426 70.1811C66.7843 69.9428 66.8185 69.889 68.07 68.7179C70.4355 66.5044 71.5086 64.0553 71.4991 60.8926C71.4921 58.6196 70.9428 56.8949 69.5398 54.7407L68.561 53.2377L68.5596 50.5017C68.5581 47.3295 68.3785 45.9961 67.6767 43.9494C66.8506 41.5394 65.8044 39.8831 63.8898 37.9537C61.4266 35.4717 59.4362 34.2936 56.254 33.4343C54.5869 32.984 51.1072 32.856 49.4268 33.1829ZM56.4337 36.5844C60.7539 38.0048 64.2094 41.7412 65.2371 46.1036C65.4834 47.1495 65.5935 48.3949 65.4395 48.3949C65.4025 48.3949 65.0588 48.2852 64.676 48.1511C64.2701 48.009 62.7052 47.8553 60.9253 47.7825C55.9678 47.58 52.7211 46.9887 48.4474 45.5102C47.3159 45.1187 46.1032 44.7992 45.7525 44.8003C44.3515 44.8041 42.687 45.9932 42.1671 47.3617C42.0117 47.7709 41.8714 47.8555 41.3482 47.8555C41.0011 47.8555 40.3078 48.011 39.8078 48.2013L38.8986 48.5471L39.0145 47.7067C39.0783 47.2446 39.2429 46.4138 39.3803 45.8607C40.2557 42.3391 42.9671 39.0197 46.3276 37.3564C48.685 36.1897 49.6611 35.9861 52.5709 36.0546C54.6045 36.1027 55.2285 36.1882 56.4337 36.5844ZM108.794 36.2715C110.786 36.7515 113.122 38.0151 114.639 39.4337C117.122 41.7539 118.49 44.38 118.949 47.7067L119.064 48.5471L118.155 48.2013C117.498 47.9513 116.786 47.8551 115.586 47.854C113.339 47.8522 111.813 47.5832 110.448 46.9486C108.887 46.2227 107.804 45.2594 106.74 43.6501C106.246 42.903 105.783 42.2892 105.712 42.2864C105.641 42.2833 105.186 42.8695 104.701 43.5886C102.65 46.6312 100.7 47.6309 96.4988 47.7931C95.2142 47.8425 93.8051 47.9982 93.3676 48.139C92.9299 48.2798 92.546 48.3949 92.5142 48.3949C92.3687 48.3949 92.4865 47.1207 92.726 46.1036C93.631 42.2623 96.5624 38.7133 100.142 37.1253C102.673 36.0025 106.225 35.652 108.794 36.2715ZM106.752 48.1277C108.346 49.4267 110.263 50.2705 112.458 50.6387L113.145 50.754L113.08 55.194C112.998 60.8064 112.922 61.0609 110.666 63.2603C109.837 64.0679 109.039 65.0161 108.893 65.3674C108.715 65.7936 108.626 66.6307 108.626 67.8849V69.7639L109.544 69.961C110.049 70.0692 111.027 70.2866 111.719 70.4442L112.975 70.7303L112.865 71.2809C112.796 71.6309 112.643 71.9733 112.419 72.2982C111.922 73.0192 111.742 74.012 112.312 74.6766C112.821 75.2696 113.72 75.3693 114.228 74.775C114.761 74.1509 115.199 73.4129 115.551 72.5513C115.942 71.597 116.025 71.5073 116.473 71.5596C117.318 71.6585 118.897 72.5448 119.806 73.4306C120.327 73.9381 120.91 74.7707 121.255 75.4986L121.831 76.7169L121.887 81.5271L121.943 86.3374H108.197C106.966 86.3374 105.841 86.3383 104.813 86.3391C96.2512 86.3458 94.3742 86.3473 94.1897 85.7887C94.1379 85.6318 94.2195 85.4308 94.324 85.1733C94.3687 85.0632 94.4177 84.9426 94.4621 84.8109C95.3588 82.152 95.5221 78.865 94.8691 76.6212C94.5496 75.5245 93.5131 73.5089 92.9601 72.9097L92.5997 72.5191L93.1849 72.2163C93.889 71.8518 94.9761 71.4423 95.2861 71.4247C95.4097 71.4179 95.5106 71.5312 95.5106 71.6767C95.5106 72.3105 96.4654 74.0109 97.3421 74.9388C98.3405 75.9953 99.2523 76.5434 100.901 77.0771C101.725 77.3441 102.188 77.6913 103.696 79.17C104.689 80.145 105.571 80.9427 105.656 80.9427C105.74 80.9427 106.629 80.1443 107.631 79.1684C108.936 77.8975 109.007 77.8815 109.533 77.7635C109.87 77.6878 110.032 77.3171 109.882 77.0056L109.43 76.0646C109.11 75.3984 108.34 75.0592 107.666 75.3629C106.962 75.6802 106.317 76.0724 105.935 76.5318C105.741 76.7669 105.592 76.6962 104.822 76.0039C103.938 75.2085 102.859 74.6178 101.196 74.0196C100.716 73.8469 100.037 73.4533 99.6857 73.1449C99.0987 72.629 98.3986 71.4344 98.3892 70.9326C98.3871 70.8171 98.7983 70.634 99.303 70.5256C99.8079 70.4174 100.778 70.2018 101.459 70.0468L102.697 69.765V67.7956C102.697 66.5409 102.609 65.6161 102.453 65.2475C102.319 64.9292 101.636 64.1603 100.934 63.5386C99.4721 62.2423 98.67 60.8449 98.384 59.0943C98.287 58.5009 98.2072 56.3873 98.2067 54.3974L98.2056 50.7794L99.2793 50.5681C101.56 50.1189 103.889 48.9842 105.034 47.7637C105.266 47.5174 105.523 47.316 105.606 47.316C105.689 47.316 106.205 47.6812 106.752 48.1277ZM48.4814 48.6494C51.7786 49.7481 56.9465 50.7326 59.4172 50.7326C59.7402 50.7326 59.7575 50.9225 59.7575 54.4844C59.7575 56.5477 59.6763 58.6719 59.5769 59.2047C59.2616 60.8956 58.4465 62.2819 57.0287 63.5386C56.3275 64.1603 55.6439 64.9292 55.5097 65.2475C55.3469 65.6339 55.2659 66.5956 55.2659 68.1428C55.2659 69.4168 55.1809 70.7033 55.077 71.0014C54.9071 71.4893 54.795 71.5533 53.9541 71.642C53.4405 71.6961 52.4734 71.921 51.8052 72.1417C50.6496 72.5234 50.5738 72.5279 50.2459 72.231C49.5055 71.5603 49.337 70.8439 49.337 68.3672C49.337 66.6866 49.2601 65.8218 49.0703 65.3674C48.9237 65.0161 48.1258 64.0679 47.2972 63.2603C44.9616 60.9834 44.9564 60.9632 44.8824 54.0386C44.829 49.0489 44.8543 48.4116 45.1163 48.1495C45.5408 47.7245 45.8385 47.7688 48.4814 48.6494ZM41.9303 53.7712L41.9799 56.7153L41.3448 56.6121C40.0429 56.4008 38.9301 55.0561 38.9204 53.6829C38.9139 52.7601 39.6423 51.6145 40.537 51.141L40.5402 51.1393C41.0572 50.8657 41.3739 50.6981 41.5711 50.7893C41.8827 50.9334 41.8959 51.7238 41.9302 53.7635L41.9303 53.7712ZM63.7608 50.9802C66.0425 51.9574 66.241 55.0638 64.0987 56.269C63.7099 56.4878 63.2207 56.6667 63.0119 56.6667C62.6405 56.6667 62.6321 56.6002 62.6321 53.6997C62.6321 53.6322 62.6321 53.5662 62.6321 53.5016C62.6318 51.5858 62.6317 50.8908 62.9058 50.7565C63.0619 50.68 63.3068 50.7852 63.6911 50.9503C63.7138 50.9601 63.737 50.9701 63.7608 50.9802ZM95.331 53.6997C95.331 56.6002 95.3225 56.6667 94.9512 56.6667C94.3604 56.6667 93.1923 55.9291 92.8261 55.3249C91.8653 53.7391 92.4819 51.7385 94.1632 50.9874L94.2157 50.9639C94.6256 50.7806 94.8849 50.6645 95.0489 50.7445C95.3312 50.882 95.3312 51.6002 95.331 53.5548L95.331 53.6997ZM117.731 51.2929C118.38 51.693 119.049 52.9261 119.043 53.7115C119.033 55.0552 117.908 56.4026 116.623 56.6114L115.992 56.7138V53.8432C115.992 52.2642 116.051 50.9141 116.122 50.8428C116.301 50.6634 117.05 50.8727 117.731 51.2929ZM39.4554 59.0823C39.9989 59.3342 40.6457 59.5468 40.8927 59.5549C41.7936 59.5836 41.9998 59.7989 42.4312 61.1607C42.9364 62.7553 44.1867 64.6542 45.4023 65.6729C46.0665 66.2295 46.2827 66.5327 46.2827 66.908C46.2827 67.3996 46.2555 67.4113 43.9691 67.9076L41.6558 68.4098L40.4784 67.8585C38.4684 66.917 36.9827 65.2441 36.3115 63.1666C35.8785 61.8262 35.9982 59.2614 36.5513 58.0273L36.9491 57.1402L37.7082 57.8822C38.1257 58.2902 38.9119 58.8304 39.4554 59.0823ZM68.1489 58.4788C69.4187 62.1213 67.6747 66.1955 64.1364 67.8527L62.937 68.4145L60.5838 67.8903C57.59 67.2235 57.5704 67.1712 59.5627 65.177C61.0717 63.6667 62.1163 61.9026 62.3613 60.45C62.4833 59.7277 62.7494 59.5514 63.7263 59.5464C64.4323 59.5426 66.3217 58.5238 66.8894 57.8403C67.1665 57.5069 67.4726 57.2544 67.5696 57.279C67.6667 57.3037 67.9273 57.8437 68.1489 58.4788ZM118.999 61.0274C118.874 63.9015 118.126 66.0534 116.683 67.6866L116.082 68.3669L113.881 67.8839C111.716 67.4086 111.68 67.3928 111.68 66.9056C111.68 66.5332 111.898 66.2279 112.561 65.6729C113.782 64.6492 115.027 62.7555 115.533 61.1513C115.943 59.851 115.974 59.8095 116.647 59.6633C117.028 59.5806 117.704 59.3662 118.148 59.1868C118.593 59.0073 118.988 58.8525 119.026 58.8426C119.064 58.8327 119.052 59.8158 118.999 61.0274ZM93.198 59.252C93.5313 59.3882 94.1815 59.554 94.6429 59.6205C95.4497 59.7368 95.4866 59.7685 95.6001 60.4412C95.8468 61.9023 96.8883 63.6636 98.4004 65.177C100.38 67.1586 100.358 67.2237 97.4869 67.8732L95.2411 68.3812L94.6626 67.694C93.9201 66.8116 93.06 65.1175 92.7156 63.8582C92.3759 62.6167 92.1466 59.0044 92.4075 59.0044C92.509 59.0044 92.8647 59.1159 93.198 59.252ZM61.034 71.0568C62.3502 71.3559 63.8567 71.7973 64.3819 72.0381L65.3366 72.4756L64.7478 73.2492C64.4241 73.6748 64.0038 74.37 63.8138 74.7941L63.4683 75.5651L62.4663 74.584C61.2783 73.4209 60.0383 72.6133 58.8173 72.2075C58.0519 71.953 57.9434 71.859 58.0323 71.5272C58.0891 71.3156 58.1367 71.0009 58.138 70.8277C58.1412 70.4138 58.2379 70.4215 61.034 71.0568ZM86.505 71.9307C87.1031 72.117 87.9401 72.4734 88.365 72.7227C89.5266 73.404 90.9653 75.0332 91.5952 76.3804C92.3232 77.9373 92.4882 80.3335 92.0142 82.4658C91.7293 83.7478 91.6761 83.8445 91.3175 83.7353C91.1038 83.6702 90.5949 83.5722 90.1863 83.5176C89.4482 83.4187 89.4419 83.4115 89.2445 82.428C88.9601 81.0101 88.3661 79.935 87.3744 79.0425C86.4689 78.2278 84.9101 77.5261 84.0053 77.5261H83.4731V78.9224V80.3189L84.3666 80.6365C85.3993 81.0035 86.1307 81.8317 86.2901 82.8141C86.3907 83.4352 86.374 83.4602 85.8568 83.4602C83.374 83.4602 80.9 82.0808 79.748 80.054C78.7505 78.2993 77.6174 77.534 76.0171 77.534C74.4651 77.534 73.1761 78.3892 72.3113 79.9929C72.097 80.3903 71.8411 80.5681 71.3519 80.66C70.5163 80.8168 69.1931 82.0037 68.9155 82.8452C68.7392 83.3798 68.6354 83.4602 68.1205 83.4602C67.7948 83.4602 67.201 83.5758 66.801 83.717L66.0737 83.9738L65.856 82.7539C65.7299 82.0481 65.6722 80.7041 65.7193 79.5642C65.7906 77.8284 65.8671 77.4511 66.3634 76.3898C66.9983 75.0321 68.4329 73.406 69.6002 72.7214C71.4006 71.6653 71.8433 71.6121 78.9206 71.6017C84.7962 71.5929 85.5215 71.6243 86.505 71.9307ZM56.544 74.6498C58.9107 75.092 60.9071 76.6667 61.9634 78.9246C62.4386 79.94 62.5407 80.3996 62.6019 81.7969L62.675 83.4602H61.2232H59.7713L59.5841 82.7645C59.1204 81.0407 57.993 80.4126 55.3557 80.4083C54.3676 80.4067 53.2639 80.4874 52.9029 80.5876C52.0722 80.8186 51.013 81.9725 50.8542 82.82L50.7342 83.4602H49.296H47.8578L47.9313 81.707C47.9904 80.2916 48.0966 79.7543 48.4814 78.9192C49.391 76.9456 51.4681 75.2272 53.5591 74.7183C54.7041 74.4396 55.3404 74.4251 56.544 74.6498ZM76.4143 80.5471C76.5342 80.6233 76.947 81.1682 77.332 81.7582C79.1483 84.5408 81.6959 86.0725 84.8655 86.2876L86.3478 86.3881V90.5725C86.3478 94.1373 86.2985 94.9151 86.0158 95.8248C85.595 97.1781 84.7586 98.398 83.669 99.2484C82.1501 100.434 82.1384 100.464 82.0234 103.6C81.9155 106.547 81.7786 107.079 80.93 107.849C80.2809 108.437 79.7906 108.635 78.9815 108.635C78.1389 108.635 77.6765 108.437 76.9422 107.759C76.1644 107.042 76.0654 106.621 75.9467 103.535L75.8371 100.682L74.4662 99.3991C71.708 96.8167 71.6153 96.489 71.6153 89.3244C71.6153 85.3388 71.6728 83.8342 71.8309 83.676C71.9495 83.5573 72.4741 83.4602 72.9967 83.4602H73.947L74.661 82.0389C75.4468 80.4746 75.8119 80.1639 76.4143 80.5471ZM56.7032 84.8988V86.3374H55.2659H53.8286V84.8988V83.4602H55.2659H56.7032V84.8988ZM44.8454 87.8659V90.8329H43.8815C43.1783 90.8329 42.7895 90.732 42.4441 90.4601C41.9797 90.0947 41.9707 90.0462 41.9707 87.9345C41.9707 85.8884 41.9926 85.7596 42.4118 85.3403C42.7738 84.9777 43.0307 84.8988 43.8491 84.8988H44.8454V87.8659ZM38.9164 87.8853V89.4334L38.4224 89.3114C37.155 88.9987 36.0418 87.8479 36.0418 86.8502V86.3374H37.4791H38.9164V87.8853ZM50.8542 86.9775C51.013 87.825 52.0722 88.979 52.9029 89.21C53.6365 89.4139 56.5233 89.4573 57.4197 89.2778C58.2476 89.1122 59.3175 88.0275 59.5661 87.1016L59.7713 86.3374H61.2018H62.6321V89.0894C62.6321 91.6898 62.6064 91.8926 62.1668 92.7759C61.9108 93.29 61.4055 93.9561 61.0439 94.256C59.8974 95.2067 58.9634 95.3617 54.7709 95.2965C50.5757 95.2314 50.1622 95.1228 48.983 93.7788C48.0047 92.6635 47.8996 92.2125 47.8996 89.1304V86.3374H49.317H50.7342L50.8542 86.9775ZM68.561 89.3044V92.2715H68.1385C67.5714 92.2715 66.5964 91.5919 66.095 90.8469C65.4004 89.8155 65.6408 88.0016 66.5856 87.1459C66.8804 86.8786 68.0572 86.3669 68.4263 86.3453C68.5003 86.341 68.561 87.6725 68.561 89.3044ZM90.8701 86.8094C92.159 87.4587 92.7045 89.6204 91.8841 90.8286C91.3662 91.5914 90.3954 92.2715 89.8246 92.2715H89.4021V89.301V86.3305L89.8961 86.449C90.1678 86.5143 90.6062 86.6765 90.8701 86.8094ZM102.651 100.743C104.9 101.643 106.942 102.459 107.189 102.556C107.584 102.711 107.082 102.954 102.97 104.604C100.403 105.635 98.2805 106.477 98.2539 106.477C98.2273 106.477 98.2056 104.819 98.2056 102.791C98.2056 100.477 98.2719 99.1047 98.3837 99.1047C98.4814 99.1047 100.402 99.8418 102.651 100.743ZM73.2246 106.972C73.9412 109.825 76.1369 111.581 78.9801 111.576C81.8161 111.572 84.0271 109.804 84.7385 106.972C84.8566 106.502 85.0139 106.118 85.0883 106.118C85.7026 106.118 90.4127 107.332 91.1642 107.685C93.7474 108.896 95.331 111.658 95.331 114.954V116.008H92.3665H89.4021V114.569V113.131H87.8749H86.3478V117.536V121.942H78.9815H71.6153V117.536V113.131H70.0882H68.561V114.569V116.008H65.5966H62.6321V114.954C62.6321 111.711 64.1833 108.94 66.6745 107.733C67.4514 107.356 71.8773 106.186 72.7168 106.136C72.922 106.123 73.0744 106.374 73.2246 106.972ZM68.561 120.504V121.942H65.5966H62.6321V120.504V119.065H65.5966H68.561V120.504ZM92.4382 119.649C92.3432 119.971 92.3159 120.618 92.3777 121.088L92.4901 121.942H90.9461H89.4021V120.504V119.065H91.0065H92.6109L92.4382 119.649ZM97.7645 119.506C98.7029 120.446 98.0797 121.942 96.75 121.942C95.4767 121.942 94.8637 120.415 95.7721 119.506C96.05 119.228 96.4183 119.065 96.7683 119.065C97.1183 119.065 97.4866 119.228 97.7645 119.506Z" fill="#16274A"/>
</svg>
