<svg width="158" height="158" viewBox="0 0 158 158" fill="none" xmlns="http://www.w3.org/2000/svg">
<rect width="158" height="158" rx="79" fill="#E8EAED"/>
<path fill-rule="evenodd" clip-rule="evenodd" d="M77.5395 35.087C72.1023 35.946 67.8414 39.7407 66.5034 44.9157C66.2146 46.0325 66.1302 46.96 66.1284 49.0352C66.1261 51.6426 66.1115 51.742 65.5716 52.7948C65.2667 53.3895 65.0173 54.0296 65.0173 54.2174C65.0173 54.405 64.9746 54.5586 64.9225 54.5586C64.8701 54.5586 64.3225 54.2176 63.7053 53.8009C62.4497 52.953 60.186 52.0047 59.3953 51.995C58.8348 51.9882 57.9654 52.6995 57.9654 53.1648C57.9654 53.7844 58.4167 54.3538 59.1466 54.6554C62.0492 55.8548 63.7845 57.0999 65.0104 58.8627C66.2651 60.6664 66.9442 63.2017 66.836 65.6778L66.7803 66.9492L66.5019 66.3399C66.1751 65.6244 63.4757 62.638 62.7618 62.202C61.8981 61.6745 61.1766 61.8305 58.6182 63.0977C55.521 64.6317 53.3735 65.1978 50.1712 65.3248C47.5495 65.4287 46.9813 65.5822 46.4422 66.3309C45.7722 67.2616 45.6509 67.0127 45.7817 64.9759C45.9251 62.7417 46.2365 61.4977 47.0564 59.8834C47.9034 58.2158 49.8815 56.3008 51.57 55.5135C53.6936 54.5234 53.7702 54.4764 54.0458 53.9907C54.4138 53.3424 54.1874 52.6097 53.5125 52.2646C53.0077 52.0064 52.8763 52.0128 51.9284 52.3423C48.6151 53.4943 45.4898 56.3412 44.1323 59.4442C43.4124 61.0893 43.1125 62.7265 42.9927 65.6629C42.888 68.2317 42.8188 68.7053 42.4395 69.4526C41.1362 72.019 42.6649 75.2719 45.533 76.0359C46.1671 76.2048 46.2555 76.3014 46.3655 76.9453C46.586 78.2365 47.6959 80.2247 48.873 81.4373L49.9856 82.5833V83.7693V84.9555L43.8151 87.308C40.4213 88.602 37.2702 89.8726 36.8124 90.1318C34.9954 91.1606 33.2811 93.1953 32.4877 95.264C32.0891 96.3036 32.0822 96.4996 32.0262 108.407C31.9699 120.39 31.9729 120.502 32.3613 121.295C32.5942 121.771 33.0305 122.267 33.436 122.516L34.1187 122.936L56.0519 122.985C74.4561 123.026 78.1064 122.992 78.7387 122.777C79.3845 122.557 79.6001 122.557 80.2459 122.777C80.8782 122.992 84.5285 123.026 102.933 122.985L124.866 122.936L125.549 122.516C125.949 122.27 126.39 121.772 126.616 121.311C126.976 120.574 127 120.208 127 115.435V110.345L126.544 109.895C125.998 109.354 125.343 109.318 124.747 109.795C124.311 110.144 124.309 110.162 124.216 115.164L124.124 120.183L121.386 120.233L118.649 120.284V109.94V99.5958L118.22 99.1965C117.689 98.704 116.975 98.6851 116.396 99.1482L115.958 99.499L115.907 109.887L115.856 120.274H110.85C108.097 120.274 105.844 120.227 105.844 120.17C105.844 120.112 106.51 119.331 107.323 118.434C108.137 117.536 108.859 116.578 108.929 116.306C109.007 115.996 108.458 112.316 107.47 106.532C106.04 98.1634 105.911 97.2151 106.155 96.8475C106.41 96.4614 106.459 96.4539 107.069 96.7059C107.924 97.0593 109.026 96.7804 109.524 96.0853C109.721 95.8101 110.569 94.2221 111.41 92.5563C112.25 90.8904 112.956 89.5071 112.978 89.4821C113.082 89.3658 120.609 92.392 121.235 92.8017C122.206 93.4374 123.237 94.7271 123.71 95.8962C124.055 96.7509 124.116 97.3693 124.206 100.948C124.322 105.527 124.363 105.663 125.63 105.663C126.121 105.663 126.405 105.541 126.67 105.218C127.013 104.798 127.029 104.536 126.955 100.546C126.886 96.8168 126.831 96.1951 126.485 95.264C125.724 93.2197 123.999 91.1662 122.172 90.1318C121.714 89.8726 118.563 88.602 115.169 87.308L108.999 84.9555V83.6878C108.999 82.4205 108.999 82.4197 109.94 81.4019C111.134 80.1098 111.86 78.8522 112.264 77.3759C112.533 76.3924 112.657 76.1944 113.064 76.0978C113.992 75.8777 114.899 75.3098 115.625 74.4938C116.947 73.0079 117.17 71.1309 116.239 69.3155C115.699 68.2628 115.684 68.1633 115.682 65.5559C115.678 60.9602 114.662 58.3327 111.783 55.4671C109.18 52.8774 106.137 51.6319 102.394 51.6247C99.617 51.6196 96.658 52.5556 94.6632 54.0704C93.8059 54.7215 93.7817 54.7281 93.7817 54.3079C93.7817 54.0704 93.5323 53.3895 93.2274 52.7948C92.692 51.7505 92.6729 51.6266 92.6707 49.1797C92.6677 46.0527 92.3643 44.5891 91.2369 42.2658C90.5141 40.7758 90.152 40.2899 88.701 38.8612C87.3281 37.5096 86.7099 37.0507 85.4308 36.4338C84.5632 36.0152 83.3467 35.5459 82.7273 35.3906C81.3312 35.0405 78.7788 34.8911 77.5395 35.087ZM81.4409 37.9469C85.3925 38.7676 88.614 41.8072 89.6029 45.6485C89.7621 46.2667 89.8813 47.5043 89.8768 48.4937L89.869 50.2449L89.5454 49.6446C89.0838 48.7887 86.2493 45.7961 85.572 45.4497C84.7755 45.0422 84.0536 45.2074 82.3443 46.1885C79.5014 47.8202 76.4073 48.6433 72.6197 48.7751C70.4616 48.8502 69.8757 49.0383 69.4711 49.786C69.071 50.5254 68.9144 50.1326 68.9144 48.3898C68.9144 45.2035 69.7916 43.043 71.9709 40.8628C74.5677 38.2648 77.9526 37.2225 81.4409 37.9469ZM85.7748 49.4033L86.9154 50.6726V54.4175C86.9154 56.4772 86.8244 58.6488 86.7135 59.2432C86.0834 62.6141 83.3538 64.9918 79.9073 65.1715C77.5269 65.2958 75.8899 64.7347 74.2759 63.2414C72.2825 61.3969 71.8837 60.0536 71.8837 55.182V51.6605L73.6002 51.5344C77.0369 51.2817 80.4417 50.333 83.1111 48.8841C83.8255 48.4963 84.4606 48.169 84.5222 48.1565C84.584 48.144 85.1476 48.7052 85.7748 49.4033ZM69.1 54.9322C69.1 56.7142 69.0879 56.768 68.7307 56.5789C68.2408 56.3194 67.801 55.4484 67.801 54.7372C67.801 54.3475 67.9752 53.9909 68.3434 53.6267C68.6418 53.3315 68.9341 53.0901 68.9929 53.0901C69.0517 53.0901 69.1 53.9191 69.1 54.9322ZM90.5176 53.655C91.0619 54.2947 91.1345 55.0504 90.7266 55.8304C90.4981 56.2676 90.1038 56.5778 89.7766 56.5778C89.7339 56.5778 89.699 55.7931 89.699 54.834C89.699 53.8749 89.7751 53.0901 89.8681 53.0901C89.9611 53.0901 90.2534 53.3444 90.5176 53.655ZM105.017 54.6537C108.651 55.5693 111.658 58.5082 112.621 62.0862C112.777 62.6692 112.891 63.9072 112.89 65.0218L112.888 66.9492L112.544 66.2149C112.354 65.8111 111.402 64.6645 110.428 63.6671L108.656 61.8535L107.668 61.944C106.951 62.0097 106.318 62.2448 105.367 62.7988C102.643 64.385 98.74 65.3889 95.2977 65.3889H93.5386L92.8325 66.1231C92.4441 66.527 92.0813 66.8574 92.0262 66.8574C91.8439 66.8574 91.9222 63.5894 92.1282 62.5985C92.2396 62.0636 92.6573 60.9487 93.0567 60.121C94.3028 57.539 96.7298 55.5433 99.6274 54.7183C101.034 54.3178 103.563 54.2875 105.017 54.6537ZM69.4752 60.4786C69.8278 61.9764 70.9324 63.896 72.1156 65.0671C73.1745 66.1151 73.1827 66.1314 73.1827 67.2109V68.2987L71.7445 68.8522L70.3062 69.4054L69.9856 69.0034C69.7198 68.6701 69.664 68.1928 69.6595 66.2149C69.6534 63.5793 69.4461 61.9764 68.9196 60.4949C68.5837 59.5497 68.5834 59.5149 68.91 59.5149C69.1659 59.5149 69.3039 59.75 69.4752 60.4786ZM89.7271 60.8457C89.3205 62.0137 89.2551 62.5583 89.1931 65.2971C89.1237 68.3707 88.9623 69.2437 88.4635 69.2437C88.3286 69.2437 87.6746 69.0284 87.0102 68.7654L85.8019 68.2868V67.0731C85.8019 65.8654 85.8066 65.8546 86.7189 64.9357C87.9166 63.7297 88.8378 62.1855 89.2427 60.7058C89.4789 59.8425 89.6541 59.5149 89.8794 59.5149C90.1563 59.5149 90.1396 59.6608 89.7271 60.8457ZM62.7739 66.058L63.9038 67.2776L63.9001 70.7847C63.8957 74.977 63.735 76.2379 63.0127 77.7438C60.5891 82.7984 53.2378 83.2588 50.0811 78.5537C49.0094 76.9563 48.8764 76.2281 48.8742 71.9513L48.8721 68.1423L49.9392 68.1412C52.85 68.1383 57.3712 66.9771 59.9165 65.5787C60.6295 65.1868 61.31 64.86 61.4284 64.8523C61.547 64.8444 62.1526 65.3871 62.7739 66.058ZM108.874 66.0372L109.955 67.2242L109.895 71.7675L109.834 76.3109L109.242 77.5483C106.64 82.9807 98.9881 83.3157 95.9168 78.1317C95.1472 76.8324 94.9021 75.2413 94.8983 71.5199L94.8952 68.1976L96.9276 68.0755C99.7835 67.9039 102.756 67.1259 105.348 65.8724C106.488 65.3204 107.505 64.8646 107.607 64.8595C107.709 64.8543 108.279 65.3843 108.874 66.0372ZM79.5092 67.9566C80.3962 67.9579 81.5077 67.8374 82.0145 67.6854C82.5155 67.5351 82.9464 67.4112 82.9719 67.4101C82.9973 67.409 83.0183 67.7385 83.0183 68.1425C83.0183 68.7951 82.8268 69.1114 81.3017 70.978C80.3577 72.1337 79.5326 73.0629 79.4684 73.0429C79.404 73.0231 78.5898 72.0757 77.659 70.9376C76.1749 69.1235 75.9663 68.7806 75.9663 68.1548V67.4413L76.9406 67.6979C77.4764 67.8389 78.6323 67.9555 79.5092 67.9566ZM67.7471 70.681C67.9951 71.2651 67.9992 71.4498 67.778 72.0699C67.6375 72.4632 67.3348 72.9069 67.105 73.056L66.6875 73.3269V71.4625C66.6875 69.6296 66.694 69.6015 67.0744 69.8027C67.2871 69.9154 67.59 70.3106 67.7471 70.681ZM113.722 70.3873C114.309 71.2163 113.971 72.6277 113.072 73.1035C112.725 73.2874 112.711 73.2219 112.711 71.4465C112.711 69.6711 112.725 69.6055 113.072 69.7895C113.271 69.8946 113.563 70.1637 113.722 70.3873ZM46.0885 71.5383C46.0885 72.4974 46.0124 73.2821 45.9194 73.2821C45.8264 73.2821 45.5341 73.0279 45.2699 72.7173C44.62 71.9533 44.609 70.8739 45.245 70.2451C45.4955 69.9972 45.7878 69.7944 45.8945 69.7944C46.0157 69.7944 46.0885 70.4475 46.0885 71.5383ZM92.1115 71.5447C92.1115 73.2351 92.0989 73.2884 91.7422 73.0997C91.2848 72.8573 90.8125 71.9829 90.8125 71.3778C90.8125 70.9261 91.6201 69.7944 91.9425 69.7944C92.0354 69.7944 92.1115 70.5821 92.1115 71.5447ZM75.8582 73.0986L77.4437 75.026L76.9371 75.4384C76.1098 76.1117 74.4771 77.194 74.4051 77.1168C74.3683 77.0775 73.7426 75.8661 73.0146 74.425C71.8506 72.1205 71.7307 71.7907 72.0193 71.6882C72.1999 71.6242 72.7234 71.4272 73.1827 71.2508C73.642 71.0742 74.0751 70.9841 74.1451 71.0505C74.2151 71.1168 74.9859 72.0385 75.8582 73.0986ZM86.9634 71.6877C87.2498 71.7892 87.124 72.133 85.9444 74.4729C85.1227 76.1031 84.5122 77.1094 84.3763 77.0577C84.2538 77.0112 83.5613 76.547 82.8373 76.0262L81.5208 75.0792L82.1412 74.3183C82.4823 73.8998 83.2432 72.9623 83.832 72.2349L84.9024 70.9121L85.7696 71.2422C86.2467 71.4235 86.784 71.624 86.9634 71.6877ZM71.1191 76.9075C71.8226 78.2958 72.5831 79.5963 72.8089 79.7977C73.2332 80.176 74.5337 80.2841 75.3168 80.0064C75.5844 79.9113 75.7533 79.9794 75.9222 80.2507C76.1176 80.5645 76.0348 81.3435 75.4213 84.9606C75.0171 87.3442 74.6577 89.3228 74.6226 89.3575C74.5875 89.3922 71.9119 88.412 68.6767 87.1795L62.7946 84.9384L62.7924 83.6131C62.7904 82.3441 62.8147 82.2699 63.3629 81.8692C64.4899 81.0454 65.9355 78.628 66.23 77.0753C66.3759 76.3065 66.5079 76.1866 67.5746 75.8538C68.0114 75.7176 68.6795 75.3344 69.0592 75.0025C69.4389 74.6704 69.7697 74.3954 69.7946 74.3912C69.8195 74.387 70.4154 75.5194 71.1191 76.9075ZM89.8729 75.1306C90.2628 75.4405 90.9392 75.7984 91.3761 75.926C92.1509 76.1523 92.1815 76.1914 92.6133 77.5072C93.1253 79.0671 94.4079 81.0748 95.4627 81.968C96.1736 82.5699 96.1942 82.6204 96.1922 83.7629L96.19 84.9384L90.3079 87.1795C87.0728 88.412 84.3971 89.3922 84.362 89.3575C84.327 89.3228 83.9675 87.3442 83.5633 84.9606C82.9498 81.3435 82.867 80.5645 83.0624 80.2507C83.2313 79.9794 83.4002 79.9113 83.6678 80.0064C83.8719 80.0787 84.4294 80.1439 84.9065 80.1509C86.0955 80.1685 86.3984 79.8392 87.8379 76.9642C88.498 75.6459 89.0664 74.5671 89.1011 74.5671C89.1358 74.5671 89.483 74.8206 89.8729 75.1306ZM80.2843 77.6025C81.4461 78.3833 81.1053 78.9726 79.4923 78.9726C77.8793 78.9726 77.5386 78.3833 78.7003 77.6025C79.0813 77.3464 79.4376 77.1369 79.4923 77.1369C79.5471 77.1369 79.9034 77.3464 80.2843 77.6025ZM80.2344 81.8637C80.2342 81.9395 80.5787 84.014 80.9997 86.4739L81.7654 90.9463L81.0402 91.6137C80.6414 91.9806 80.1299 92.5287 79.9037 92.8316L79.4923 93.3823L79.0809 92.8316C78.8547 92.5287 78.3443 91.9817 77.9468 91.6159L77.2242 90.9507L77.9871 86.4403C78.4067 83.9595 78.75 81.8839 78.75 81.8279C78.75 81.7719 79.084 81.726 79.4923 81.726C79.9006 81.726 80.2346 81.7879 80.2344 81.8637ZM55.1504 84.4872C56.4379 84.6761 57.4855 84.6014 59.4964 84.1772C59.9806 84.0751 60.0067 84.1043 60.0067 84.7471C60.0067 85.3287 59.7668 85.7158 58.3154 87.4762C57.3853 88.6043 56.5582 89.5523 56.4776 89.5827C56.3971 89.6132 55.5302 88.6633 54.5513 87.4718C53.0901 85.6934 52.7713 85.1948 52.7703 84.6875C52.7692 84.1092 52.8019 84.0766 53.2796 84.1786C53.5603 84.2387 54.4021 84.3774 55.1504 84.4872ZM101.158 84.4909C102.431 84.6722 103.252 84.6151 105.612 84.1816C106.192 84.0751 106.215 84.094 106.215 84.6667C106.215 85.1451 105.865 85.6949 104.439 87.4519C103.462 88.6559 102.591 89.6154 102.504 89.5842C102.416 89.553 101.587 88.6042 100.661 87.4754C99.2199 85.7184 98.9779 85.3261 98.9779 84.7466C98.9779 84.1327 99.0169 84.0802 99.3954 84.1845C99.6252 84.2477 100.418 84.3855 101.158 84.4909ZM52.6592 89.5433C53.5362 90.612 54.2538 91.5595 54.2538 91.6489C54.2538 91.7383 53.6067 92.2629 52.8156 92.8146L51.3774 93.8177L50.0208 91.1482C49.2748 89.68 48.6904 88.4529 48.7224 88.4213C48.8378 88.3072 50.6403 87.6199 50.8498 87.6102C50.9678 87.6047 51.7821 88.4746 52.6592 89.5433ZM63.1016 87.9945L64.2477 88.3927L62.868 91.1179L61.4882 93.8431L60.1442 92.8931C59.4053 92.3705 58.7253 91.8787 58.6336 91.8002C58.4891 91.6763 61.6136 87.6124 61.8625 87.6008C61.9135 87.5982 62.471 87.7756 63.1016 87.9945ZM98.8632 89.6352C99.7697 90.7508 100.438 91.7264 100.348 91.8033C100.258 91.8802 99.5793 92.3705 98.8404 92.8931L97.4964 93.8431L96.1209 91.1265L94.7456 88.4098L95.7019 88.0234C96.2278 87.8108 96.7834 87.63 96.9365 87.6219C97.0896 87.6137 97.9566 88.5195 98.8632 89.6352ZM109.261 87.9927C109.831 88.2086 110.294 88.4358 110.288 88.4975C110.283 88.5592 109.677 89.7867 108.942 91.2251L107.605 93.8407L106.078 92.763L104.551 91.6853L106.229 89.6428C107.152 88.5192 107.978 87.6001 108.065 87.6001C108.152 87.6001 108.69 87.7767 109.261 87.9927ZM47.6699 92.7516C48.5863 94.5755 49.4706 96.1886 49.6352 96.3366C50.1734 96.8206 51.0727 96.969 51.8545 96.7024C52.5254 96.4739 52.589 96.4838 52.834 96.8535C53.0669 97.2052 52.9184 98.2901 51.496 106.628C49.6504 117.446 49.6202 116.238 51.7949 118.601C52.5348 119.405 53.1404 120.111 53.1404 120.169C53.1404 120.227 50.8877 120.274 48.1343 120.274H43.1281L43.0773 109.887L43.0264 99.499L42.5883 99.1482C42.0098 98.6851 41.2952 98.704 40.765 99.1965L40.3356 99.5958V109.94V120.284L37.5983 120.233L34.8611 120.183V108.618C34.8611 97.8686 34.885 96.9855 35.202 96.0862C35.6134 94.9189 36.7389 93.4636 37.734 92.8122C38.2883 92.4493 45.3879 89.5291 45.907 89.4504C45.9602 89.4423 46.7536 90.9279 47.6699 92.7516ZM71.8827 91.3556C74.803 92.4827 75.8567 93.1564 76.841 94.5257C78.0199 96.1659 78.0077 96.0174 78.0077 108.743V120.274H75.3213H72.6349L72.584 109.887L72.5332 99.499L72.095 99.1482C71.5166 98.6851 70.8019 98.704 70.2717 99.1965L69.8423 99.5958V109.935V120.274H64.7066H59.5708L60.0206 119.77C60.2678 119.492 60.9118 118.793 61.4513 118.216C63.1712 116.378 63.1758 117.225 61.3896 106.768C60.5288 101.728 59.8263 97.4804 59.8288 97.3289C59.831 97.1775 59.9405 96.9137 60.0719 96.7426C60.284 96.4667 60.3916 96.459 61.0259 96.6747C61.8302 96.9482 62.6174 96.8056 63.2083 96.2789C63.4102 96.0992 64.316 94.4892 65.2214 92.7011L66.8677 89.4502L68.0303 89.8838C68.6696 90.1222 70.4033 90.7845 71.8827 91.3556ZM93.8745 92.883C94.977 95.0201 95.7212 96.2466 96.0641 96.4919C96.6519 96.9122 97.8765 96.9657 98.3328 96.591C98.5696 96.3968 98.6639 96.4163 98.8849 96.7052C99.0317 96.8968 99.1536 97.1775 99.156 97.3289C99.1584 97.4804 98.4542 101.723 97.5909 106.758C95.7997 117.206 95.8047 116.356 97.525 118.211C98.0624 118.791 98.7082 119.492 98.9603 119.77L99.4184 120.274H94.2804H89.1423V109.961V99.6472L88.7389 99.2222C88.2463 98.7038 87.4829 98.6732 86.8896 99.1482L86.4514 99.499L86.4006 109.887L86.3497 120.274H83.6581H80.9665L81.0181 108.389C81.0693 96.5928 81.0729 96.4963 81.4769 95.6308C81.9542 94.6085 83.4612 92.9744 84.3674 92.4966C85.3216 91.9935 92.0046 89.4577 92.1115 89.5581C92.1626 89.6062 92.9559 91.1025 93.8745 92.883ZM57.2672 94.2084C58.4434 94.9865 58.0845 95.4933 56.3574 95.4933C55.3963 95.4933 55.1613 95.4314 55.0019 95.1368C54.8369 94.8317 54.9232 94.7003 55.5985 94.2276C56.0328 93.9236 56.4297 93.6918 56.4808 93.7122C56.5318 93.7327 56.8857 93.956 57.2672 94.2084ZM103.353 94.2181C104.061 94.6999 104.15 94.8284 103.983 95.1359C103.823 95.4316 103.589 95.4933 102.627 95.4933C101.518 95.4933 101.011 95.2927 101.026 94.86C101.032 94.7075 102.219 93.7309 102.47 93.6716C102.503 93.6639 102.9 93.9099 103.353 94.2181ZM58.5561 106.599C59.3401 111.142 59.9874 115.045 59.9943 115.271C60.0026 115.546 59.4068 116.332 58.2037 117.633L56.4006 119.582L55.8376 118.935C55.5278 118.58 54.7135 117.676 54.028 116.927L52.7817 115.566L54.259 106.952C55.0717 102.215 55.7372 98.3128 55.7375 98.2816C55.7381 98.2502 56.0517 98.2502 56.4344 98.2816L57.1303 98.3385L58.5561 106.599ZM103.246 98.3066C103.246 98.3396 103.911 102.237 104.723 106.966L106.2 115.566L105.524 116.314C105.153 116.725 104.331 117.619 103.698 118.3L102.548 119.538L100.721 117.587L98.8942 115.636L100.351 107.079C101.152 102.373 101.844 98.4602 101.888 98.3844C101.965 98.2537 103.246 98.1803 103.246 98.3066Z" fill="#16274A"/>
</svg>
