<svg width="48" height="48" viewBox="0 0 48 48" fill="none" xmlns="http://www.w3.org/2000/svg">
<rect width="48" height="48" rx="24" fill="white"/>
<path d="M24.5003 26.2421L29.2935 31.0355C29.9128 31.6548 30.9162 31.6548 31.5355 31.0355C32.1548 30.4162 32.1548 29.4127 31.5355 28.7934L26.7418 24L31.535 19.2066C32.1543 18.5873 32.1543 17.5838 31.535 16.9645C30.9157 16.3452 29.9122 16.3452 29.2929 16.9645L24.4997 21.7579L19.7065 16.9645C19.0872 16.3452 18.0838 16.3452 17.4645 16.9645C16.8452 17.5838 16.8452 18.5873 17.4645 19.2066L22.2577 24L17.4645 28.7934C16.8452 29.4127 16.8452 30.4162 17.4645 31.0355C18.0838 31.6548 19.0872 31.6548 19.7065 31.0355L24.5003 26.2421Z" fill="black"/>
</svg>
