<svg width="205" height="185" viewBox="0 0 205 185" fill="none" xmlns="http://www.w3.org/2000/svg">
<path fill-rule="evenodd" clip-rule="evenodd" d="M119.916 0.82028C101.444 2.42892 87.8665 7.91238 83.6962 15.4482L82.5063 17.5986L82.3918 37.1209C82.329 47.8584 82.1886 56.6432 82.0802 56.6432C81.9721 56.6432 80.7654 56.0786 79.3994 55.3882C74.176 52.7492 67.7351 50.9019 59.0999 49.5663C52.6966 48.576 37.5817 48.58 31.0924 49.5735C15.4705 51.9655 4.9353 56.8871 1.27391 63.5031L0.0839844 65.6535V116.712V167.77L1.27391 169.921C5.08254 176.802 16.0091 181.693 32.8929 184.072C38.3819 184.845 53.4592 184.719 59.0999 183.852C70.3614 182.122 78.7461 179.207 84.2067 175.122L86.3073 173.551L88.4079 175.122C95.7491 180.614 108.499 184.055 123.717 184.653C130.329 184.912 139.394 184.387 144.929 183.424C147.665 182.948 148.217 182.973 151.031 183.697C155.186 184.766 165.518 184.857 169.844 183.863C184.579 180.475 196.648 170.09 201.798 156.368C204.023 150.44 204.484 147.708 204.472 140.539C204.463 134.96 204.33 133.636 203.441 130.298C201.258 122.097 197.455 115.368 191.825 109.741C186.987 104.905 182.029 101.702 175.932 99.4717L172.931 98.3741L172.731 57.9864L172.531 17.5986L171.341 15.4482C167.588 8.66764 156.075 3.44368 140.322 1.37491C136.817 0.914788 123.11 0.541962 119.916 0.82028ZM142.122 9.76289C149.249 10.9727 153.669 12.273 158.062 14.4526C161.613 16.2143 163.225 17.4701 164.156 19.1997C164.895 20.574 164.895 20.6301 164.156 22.0045C163.225 23.734 161.613 24.9899 158.062 26.7515C142.699 34.373 113.349 34.4991 97.6036 27.011C93.5673 25.0912 91.8624 23.8285 90.9049 22.0493C90.2704 20.87 90.2428 20.5264 90.6929 19.4379C92.5166 15.0313 104.669 10.4645 118.516 8.9824C123.829 8.41375 136.676 8.83863 142.122 9.76289ZM93.0875 33.8063C98.1929 36.3857 105.27 38.4252 113.515 39.6935C119.97 40.6862 135.082 40.685 141.522 39.6911C150.068 38.3724 156.68 36.4682 161.935 33.8139C163.238 33.1548 164.401 32.6158 164.517 32.6158C164.633 32.6158 164.729 35.4326 164.729 38.8757C164.729 45.947 164.458 46.8076 161.629 48.7566C148.166 58.032 115.173 59.2966 97.9104 51.199C94.0106 49.3697 92.0925 48.025 91.107 46.4288C90.398 45.281 90.3084 44.4321 90.3084 38.8757C90.3084 35.4326 90.4036 32.6158 90.52 32.6158C90.6361 32.6158 91.7916 33.1516 93.0875 33.8063ZM59.7001 57.8077C65.9342 58.8529 70.9003 60.293 75.011 62.248C79.0721 64.1794 80.7522 65.4305 81.7337 67.2545C82.4731 68.6289 82.4731 68.685 81.7337 70.0593C80.803 71.7889 79.191 73.0447 75.64 74.8064C60.2771 82.4279 30.9267 82.554 15.1813 75.0658C11.145 73.1461 9.44011 71.8834 8.48265 70.1042C7.84808 68.9248 7.82048 68.5812 8.2706 67.4928C10.0943 63.0862 22.2468 58.5194 36.0937 57.0373C41.3627 56.4734 54.2486 56.8939 59.7001 57.8077ZM93.0875 57.8338C98.1929 60.4131 105.27 62.4526 113.515 63.7209C119.97 64.7136 135.082 64.7124 141.522 63.7185C150.068 62.3998 156.68 60.4956 161.935 57.8414C163.238 57.1822 164.401 56.6432 164.517 56.6432C164.633 56.6432 164.729 59.46 164.729 62.9032C164.729 71.0601 164.386 71.67 158.031 74.8224C140.928 83.3057 107.133 82.24 93.4076 72.784C90.5785 70.835 90.3084 69.9744 90.3084 62.9032C90.3084 59.46 90.4036 56.6432 90.52 56.6432C90.6361 56.6432 91.7916 57.179 93.0875 57.8338ZM10.6652 81.8612C15.7706 84.4406 22.8473 86.4801 31.0924 87.7483C37.5473 88.7411 52.6594 88.7399 59.0999 87.7459C67.6459 86.4272 74.258 84.523 79.5123 81.8688C80.8162 81.2097 81.9785 80.6707 82.0946 80.6707C82.211 80.6707 82.3062 83.4875 82.3062 86.9306C82.3062 94.0019 82.0361 94.8625 79.207 96.8115C65.7433 106.087 32.7504 107.352 15.4881 99.2539C11.5883 97.4246 9.67018 96.0798 8.68471 94.4836C7.97572 93.3359 7.88609 92.4869 7.88609 86.9306C7.88609 83.4875 7.98132 80.6707 8.09775 80.6707C8.21378 80.6707 9.3693 81.2065 10.6652 81.8612ZM93.0875 81.8612C98.1929 84.4406 105.27 86.4801 113.515 87.7483C119.97 88.7411 135.082 88.7399 141.522 87.7459C150.068 86.4272 156.68 84.523 161.935 81.8688C163.238 81.2097 164.401 80.6707 164.517 80.6707C164.633 80.6707 164.729 83.4726 164.729 86.8978C164.729 95.7675 164.29 96.4475 158.327 96.8195C151.24 97.2616 144.602 99.2278 138.887 102.578L135.721 104.434L130.787 104.608C115.15 105.159 96.7929 100.667 91.7208 95.0475L90.3084 93.4829V87.0768C90.3084 83.5535 90.4036 80.6707 90.52 80.6707C90.6361 80.6707 91.7916 81.2065 93.0875 81.8612ZM99.4264 108.293C105.854 110.445 114.075 111.951 122.541 112.526L126.567 112.8L124.117 116.467C122.77 118.484 121.085 121.572 120.374 123.329C119.662 125.086 118.923 126.905 118.731 127.371C118.385 128.21 118.338 128.213 114.647 127.641C103.704 125.946 94.0794 122.203 91.1818 118.516C90.3648 117.476 90.3084 116.981 90.3084 110.846V104.288L93.1247 105.707C94.6736 106.488 97.5091 107.651 99.4264 108.293ZM10.68 105.896C15.9343 108.55 22.5465 110.455 31.0924 111.773C34.5205 112.302 38.0911 112.483 45.0962 112.483C52.1012 112.483 55.6718 112.302 59.0999 111.773C67.6459 110.455 74.258 108.55 79.5123 105.896C80.8162 105.237 81.9785 104.698 82.0946 104.698C82.211 104.698 82.3062 107.515 82.3062 110.958C82.3062 119.115 81.9637 119.725 75.6084 122.877C58.5054 131.361 24.711 130.295 10.9853 120.839C8.15617 118.89 7.88609 118.029 7.88609 110.958C7.88609 107.515 7.98132 104.698 8.09775 104.698C8.21378 104.698 9.3761 105.237 10.68 105.896ZM169.73 105.868C182.593 109.265 192.53 119.447 195.817 132.598C196.85 136.729 196.734 145.527 195.591 149.75C192.158 162.435 182.42 172.182 169.73 175.637C165.166 176.879 156.324 176.884 151.725 175.647C141.661 172.94 133.086 165.917 128.526 156.646C125.704 150.906 124.977 147.652 124.977 140.739C124.977 133.827 125.704 130.572 128.526 124.833C131.835 118.106 137.058 112.648 143.532 109.154C147.243 107.152 149.167 106.441 153.525 105.465C157.983 104.467 165.095 104.644 169.73 105.868ZM158.771 113.266C157.293 114.086 156.757 115.462 156.727 118.514L156.7 121.317L154.626 122.518C144.882 128.164 148.095 143.238 159.327 144.572C162.203 144.914 163.486 145.502 164.147 146.783C165.22 148.86 164.582 151.193 162.67 152.182C161.071 153.01 159.837 152.888 158.136 151.733C156.068 150.328 154.654 150.111 153.194 150.974C150.962 152.294 150.459 155.103 152.105 157.061C152.644 157.702 153.904 158.662 154.905 159.193L156.726 160.16V162.845C156.726 166.001 157.27 167.417 158.785 168.201C160.856 169.273 163.363 168.529 164.25 166.58C164.513 166.002 164.734 164.322 164.742 162.846L164.755 160.161L166.829 158.96C176.573 153.315 173.36 138.24 162.128 136.906C159.252 136.564 157.969 135.976 157.308 134.696C156.235 132.619 156.873 130.286 158.785 129.296C160.377 128.472 161.616 128.59 163.283 129.721C164.089 130.27 165.198 130.831 165.747 130.968C167.146 131.32 169.061 130.421 169.749 129.09C171.099 126.477 169.986 124.11 166.549 122.285L164.729 121.318V118.634C164.729 115.477 164.184 114.062 162.67 113.278C161.311 112.575 160.024 112.571 158.771 113.266ZM93.7093 129.881C99.2212 132.481 105.761 134.314 114.871 135.812L116.828 136.134L116.769 139.938C116.715 143.407 116.872 145.075 117.744 150.309L118.037 152.069L115.476 151.785C105.916 150.722 94.9924 146.727 91.712 143.093L90.3084 141.538V134.898C90.3084 131.246 90.4436 128.326 90.6085 128.409C90.7733 128.492 92.1689 129.154 93.7093 129.881ZM10.68 129.924C15.9343 132.578 22.5465 134.482 31.0924 135.801C34.5205 136.33 38.0911 136.511 45.0962 136.511C52.1012 136.511 55.6718 136.33 59.0999 135.801C67.6459 134.482 74.258 132.578 79.5123 129.924C80.8162 129.265 81.9785 128.726 82.0946 128.726C82.211 128.726 82.3062 131.642 82.3062 135.207V141.688L80.3393 143.585C77.2036 146.61 70.333 149.51 62.7341 151.017C58.649 151.826 57.0994 152.996 57.0994 155.271C57.0994 156.862 58.3249 158.637 59.8145 159.204C61.8395 159.974 73.9292 156.672 79.6055 153.798L82.3062 152.43V158.852C82.3062 167.192 81.9869 167.768 75.6084 170.932C58.5054 179.415 24.711 178.35 10.9853 168.894C8.14136 166.935 7.88609 166.105 7.88609 158.826V152.38L10.9869 153.923C16.5168 156.675 27.8715 159.883 30.1021 159.322C31.6049 158.945 33.0929 156.941 33.0929 155.294C33.0929 153.101 31.5077 151.793 28.0852 151.163C23.9868 150.409 16.1331 147.753 13.2832 146.158C11.9196 145.395 10.1471 144.043 9.34489 143.154L7.88609 141.538V135.132C7.88609 131.608 7.98132 128.726 8.09775 128.726C8.21378 128.726 9.3761 129.265 10.68 129.924ZM93.9094 154.032C99.8638 156.886 108.428 159.115 117.016 160.047C119.491 160.316 121.517 160.657 121.517 160.805C121.517 160.954 122.569 162.671 123.854 164.623C126.561 168.732 129.172 171.725 132.388 174.402C135.165 176.716 135.071 176.767 128.061 176.775C113.991 176.791 100.376 173.694 93.4076 168.894C90.5601 166.932 90.3084 166.11 90.3084 158.779C90.3084 155.208 90.4436 152.355 90.6085 152.44C90.7733 152.525 92.2589 153.242 93.9094 154.032ZM43.1396 153.312C39.6711 155.236 41.1223 160.762 45.0962 160.762C47.1235 160.762 49.0972 158.806 49.0972 156.796C49.0972 153.79 45.7775 151.848 43.1396 153.312Z" fill="white"/>
</svg>
