<svg width="12" height="12" viewBox="0 0 12 12" fill="none" xmlns="http://www.w3.org/2000/svg">
<path fill-rule="evenodd" clip-rule="evenodd" d="M1.19902 0.155894L1.26906 0.217736L6 4.94809L10.7309 0.217736C11.0213 -0.0725785 11.492 -0.0725785 11.7823 0.217736C12.0502 0.485718 12.0709 0.907395 11.8441 1.19902L11.7823 1.26906L7.05191 6L11.7823 10.7309C12.0726 11.0213 12.0726 11.492 11.7823 11.7823C11.5143 12.0502 11.0926 12.0709 10.801 11.8441L10.7309 11.7823L6 7.05191L1.26906 11.7823C0.978742 12.0726 0.50805 12.0726 0.217736 11.7823C-0.0502467 11.5143 -0.0708607 11.0926 0.155894 10.801L0.217736 10.7309L4.94809 6L0.217736 1.26906C-0.0725785 0.978742 -0.0725785 0.50805 0.217736 0.217736C0.463386 -0.0279148 0.838183 -0.0657072 1.12357 0.104359L1.19902 0.155894Z" fill="#16274A"/>
</svg>
