<svg width="670" height="12" viewBox="0 0 670 12" fill="none" xmlns="http://www.w3.org/2000/svg">
<path d="M669.333 6C669.333 3.05448 666.946 0.666667 664 0.666667C661.054 0.666667 658.667 3.05448 658.667 6C658.667 8.94552 661.054 11.3333 664 11.3333C666.946 11.3333 669.333 8.94552 669.333 6ZM11.3333 6C11.3333 3.05448 8.9455 0.666667 6 0.666667C3.0545 0.666667 0.666687 3.05448 0.666687 6C0.666687 8.94552 3.0545 11.3333 6 11.3333C8.9455 11.3333 11.3333 8.94552 11.3333 6ZM664 5L6 5V7L664 7V5Z" fill="white"/>
</svg>
