<svg width="205" height="205" viewBox="0 0 205 205" fill="none" xmlns="http://www.w3.org/2000/svg">
<path fill-rule="evenodd" clip-rule="evenodd" d="M56.4289 1.67364C53.9696 2.52232 51.8774 4.07841 50.4702 6.1048C48.6392 8.74232 48.2597 10.7974 48.2597 18.0769V24.7238L43.3761 24.9315C40.6904 25.0457 37.0575 25.4432 35.3034 25.8144C20.3738 28.974 7.82891 39.9884 2.96054 54.2113C-3.96529 74.4453 4.26493 96.1021 22.9315 106.76C28.9122 110.175 37.4238 112.359 44.7643 112.363L48.2453 112.364L48.3521 154.042L48.459 195.719L49.3157 197.569C50.4108 199.934 53.0068 202.525 55.376 203.618L57.2294 204.473H126.396H195.563L197.416 203.618C199.785 202.525 202.381 199.934 203.476 197.569L204.333 195.719L204.447 120.521C204.51 79.1613 204.452 44.6953 204.318 43.9294C204.11 42.7425 201.092 39.5547 183.886 22.3489C172.782 11.2458 163.126 1.89088 162.428 1.55985C161.314 1.03306 154.815 0.960251 109.792 0.971789C62.1332 0.983726 58.2814 1.03426 56.4289 1.67364ZM156.694 27.4111V45.906L157.857 47.2055L159.02 48.5049L177.792 48.6159L196.566 48.7266L196.463 121.518L196.36 194.309L195.254 195.412L194.149 196.515H126.396H58.6426L57.5375 195.412L56.4321 194.309V152.5V110.69L59.422 109.599C65.5549 107.36 70.5867 104.092 75.4866 99.1646C80.9346 93.6862 84.6783 87.0246 86.8351 78.972C87.734 75.6151 87.8552 74.3832 87.8552 68.5977C87.8552 62.8122 87.734 61.5804 86.8351 58.2235C84.6783 50.1708 80.9346 43.5092 75.4866 38.0308C70.5875 33.1047 65.5573 29.837 59.422 27.5961L56.4321 26.5039V18.9447C56.4321 11.9452 56.4911 11.3202 57.2294 10.5017C57.6679 10.0155 58.3855 9.47163 58.824 9.29219C59.2625 9.11314 81.4624 8.95519 108.158 8.94126L156.694 8.9162V27.4111ZM177.822 27.8153L190.774 40.7463H177.72H164.667V27.8153C164.667 20.7033 164.713 14.8843 164.769 14.8843C164.825 14.8843 170.699 20.7033 177.822 27.8153ZM101.037 25.2212C99.7818 25.7273 98.4901 27.5714 98.4901 28.8574C98.4901 29.5477 98.945 30.4994 99.6534 31.2904L100.816 32.5899L123.356 32.6989L145.896 32.8079L147.2 31.6453C148.28 30.6816 148.503 30.1974 148.503 28.81C148.503 27.4254 148.28 26.9384 147.21 25.9843L145.917 24.8313L123.898 24.8563C111.787 24.8703 101.5 25.0346 101.037 25.2212ZM40.3747 51.6792L40.4859 70.1717L41.591 71.2746L42.696 72.3775L61.2247 72.4886L79.7534 72.5996V73.5075C79.7534 74.0072 79.3862 75.8148 78.9377 77.5245C75.6373 90.0998 65.9296 99.8271 53.2428 103.27C48.6675 104.512 39.8696 104.511 35.3034 103.268C22.8781 99.8844 12.911 89.9351 9.53913 77.5499C8.39779 73.3575 8.28058 64.619 9.3107 60.5093C12.0515 49.576 19.3181 40.7467 29.4033 36.096C32.498 34.6692 37.3146 33.2464 39.1787 33.2086L40.2634 33.1867L40.3747 51.6792ZM53.2787 33.9785C62.9098 36.3968 71.9114 43.7611 76.3843 52.8816C78.0667 56.3117 79.7534 61.722 79.7534 63.6879V64.6189H64.0065H48.2597V48.9028V33.1867H49.1925C49.7056 33.1867 51.5446 33.5432 53.2787 33.9785ZM101.037 41.1363C99.7818 41.6424 98.4901 43.4865 98.4901 44.7725C98.4901 45.4628 98.945 46.4145 99.6534 47.2055L100.816 48.5049L123.356 48.614L145.896 48.723L147.2 47.5604C148.28 46.5967 148.503 46.1125 148.503 44.7251C148.503 43.3405 148.28 42.8535 147.21 41.8994L145.917 40.7463L123.898 40.7714C111.787 40.7853 101.5 40.9497 101.037 41.1363ZM18.9585 64.9949C17.5788 65.5587 16.6786 66.9119 16.4733 68.7306C16.1536 71.5603 17.4078 76.7399 19.4278 80.9319C20.9757 84.1448 21.7711 85.2286 24.7287 88.1558C27.6293 91.026 28.8324 91.8998 31.9555 93.4034C35.8192 95.2642 40.3886 96.4491 43.6982 96.4491C45.2713 96.4491 45.7521 96.2462 46.9042 95.0963C48.7432 93.2609 48.7432 91.6797 46.9042 89.8443C45.7744 88.7168 45.2574 88.4916 43.7987 88.4916C39.392 88.4916 33.7542 86.0144 30.2883 82.5552C26.8224 79.0961 24.3404 73.4693 24.3404 69.0712C24.3404 67.6154 24.1147 67.0993 22.985 65.9717C21.6243 64.6138 20.5372 64.35 18.9585 64.9949ZM98.6448 65.0089C97.3898 65.515 96.0982 67.3591 96.0982 68.6451C96.0982 70.2378 97.9304 72.1492 99.7311 72.4344C100.945 72.627 101.382 72.475 102.513 71.4668C103.632 70.4681 103.854 69.9947 103.854 68.5977C103.854 67.2131 103.631 66.7261 102.561 65.772C101.251 64.6038 100.171 64.3934 98.6448 65.0089ZM114.591 65.0089C113.336 65.515 112.044 67.3591 112.044 68.6451C112.044 69.3354 112.499 70.2867 113.208 71.0781L114.371 72.3775L146.082 72.4842L177.794 72.5904L179.095 71.4306C180.173 70.4693 180.396 69.9843 180.396 68.5977C180.396 67.2131 180.172 66.7261 179.102 65.772L177.81 64.6189L146.621 64.644C129.468 64.6579 115.054 64.8223 114.591 65.0089ZM98.6448 80.9239C97.3898 81.43 96.0982 83.2742 96.0982 84.5601C96.0982 86.1528 97.9304 88.0642 99.7311 88.3495C100.945 88.5421 101.382 88.3901 102.513 87.3819C103.632 86.3832 103.854 85.9097 103.854 84.5128C103.854 83.1282 103.631 82.6412 102.561 81.6871C101.251 80.5189 100.171 80.3084 98.6448 80.9239ZM114.591 80.9239C113.336 81.43 112.044 83.2742 112.044 84.5601C112.044 85.2505 112.499 86.2018 113.208 86.9932L114.371 88.2926L146.082 88.3993L177.794 88.5055L179.095 87.3457C180.173 86.3844 180.396 85.8994 180.396 84.5128C180.396 83.1282 180.172 82.6412 179.102 81.6871L177.81 80.534L146.621 80.5591C129.468 80.573 115.054 80.7373 114.591 80.9239ZM171.64 107.485C164.889 109.897 161.737 117.187 164.628 123.708L165.424 125.504L151.732 140.158L138.041 154.812L135.109 154.775C133.496 154.755 131.548 154.884 130.779 155.062L129.382 155.387L123.31 147.813L117.237 140.239L117.876 137.753C118.996 133.388 117.934 129.383 114.835 126.29C106.63 118.101 92.6036 125.448 94.8628 136.751C95.1342 138.11 95.3886 139.419 95.4285 139.662C95.4679 139.905 92.2914 143.595 88.3699 147.863L81.2392 155.622L79.4002 155.052C75.538 153.853 70.8191 155.101 67.7937 158.12C65.3468 160.562 64.4215 162.855 64.4215 166.475C64.4215 170.096 65.3468 172.389 67.7937 174.831C75.9988 183.02 90.0251 175.673 87.7659 164.37C87.4944 163.011 87.2401 161.701 87.2002 161.459C87.1608 161.216 90.3372 157.526 94.2588 153.258L101.39 145.499L103.229 146.069C104.971 146.61 107.855 146.568 110.451 145.963C111.355 145.752 112.016 146.439 117.522 153.306L123.595 160.882L122.957 163.367C121.476 169.135 124.19 174.911 129.526 177.349C132.1 178.526 136.638 178.526 139.212 177.349C141.581 176.267 144.18 173.674 145.264 171.309C146.453 168.719 146.443 164.213 145.244 161.596L144.376 159.701L158.039 145.078L171.703 130.454L175.061 130.458C179.085 130.462 181.261 129.622 183.802 127.086C186.249 124.643 187.174 122.351 187.174 118.73C187.174 115.11 186.249 112.817 183.802 110.375C180.633 107.212 175.691 106.037 171.64 107.485ZM178.212 116.154C179.627 117.565 179.582 119.94 178.112 121.407C175.705 123.809 171.661 122.152 171.661 118.762C171.661 115.211 175.668 113.616 178.212 116.154ZM109.245 132.069C110.784 133.604 110.631 135.963 108.891 137.514C107.76 138.523 107.324 138.675 106.11 138.482C105.188 138.336 104.259 137.799 103.53 136.992C102.588 135.949 102.429 135.488 102.616 134.342C103.173 130.914 106.83 129.66 109.245 132.069ZM78.6415 163.65C81.326 166.043 79.7498 170.237 76.1655 170.237C71.988 170.237 70.8929 164.457 74.7702 162.873C76.2456 162.27 77.3415 162.49 78.6415 163.65ZM137.15 163.899C138.566 165.31 138.521 167.685 137.051 169.152C134.796 171.402 131.059 170.083 130.534 166.852C130.364 165.808 130.522 165.211 131.199 164.353C132.856 162.25 135.31 162.063 137.15 163.899Z" fill="white"/>
</svg>
