<svg width="28" height="28" viewBox="0 0 28 28" fill="none" xmlns="http://www.w3.org/2000/svg">
<path d="M22 9.95916V19.2C22 20.7464 20.7464 22 19.2 22H8.8C7.2536 22 6 20.7464 6 19.2V7.8C6 6.2536 7.2536 5 8.8 5H17.3203" stroke="#16274A" stroke-width="1.5" stroke-linecap="round"/>
<path d="M17.5595 5.09587L21.9033 9.40419C22.1098 9.60899 21.9636 9.95916 21.6716 9.95916H17.3278C17.1467 9.95916 17 9.81361 17 9.63406V5.32575C17 5.03612 17.3531 4.89107 17.5595 5.09587Z" stroke="#16274A" stroke-width="1.5"/>
<path d="M12 12.191L14.1715 11.7124C14.2237 11.7008 14.2754 11.6843 14.3246 11.6633V11.6633C14.9908 11.3802 15.7004 11.9913 15.5 12.6869V12.6869L15 15.1665" stroke="#16274A" stroke-width="1.5" stroke-linecap="round" stroke-dasharray="0.2 0.2"/>
<path d="M14.5 12.6875L12 15.1671" stroke="#16274A" stroke-width="1.5" stroke-linecap="round"/>
</svg>
