<svg width="12" height="14" viewBox="0 0 12 14" fill="none" xmlns="http://www.w3.org/2000/svg">
<path fill-rule="evenodd" clip-rule="evenodd" d="M4.92615 10.105C4.86447 10.1627 4.82926 10.2449 4.82926 10.3312V11.1146C4.82926 11.207 4.86967 11.2945 4.9391 11.3522L6.2125 12.4116C6.2644 12.4547 6.32888 12.4783 6.39534 12.4783H8.97048C9.03694 12.4783 9.10142 12.4547 9.15332 12.4116L10.4267 11.3522C10.4961 11.2945 10.5366 11.207 10.5366 11.1146V10.3312C10.5366 10.2449 10.5013 10.1627 10.4397 10.105L9.15663 8.90421C9.10289 8.85392 9.03314 8.82609 8.96084 8.82609H6.40498C6.33268 8.82609 6.26293 8.85392 6.20919 8.90421L4.92615 10.105Z" fill="#F8F8F8"/>
<path fill-rule="evenodd" clip-rule="evenodd" d="M0 13.6957C0 13.8637 0.131038 14 0.292682 14H1.17073C1.33237 14 1.46341 13.8637 1.46341 13.6957V11.7174C1.46341 11.5493 1.59445 11.413 1.75609 11.413H3.36585V11.8769C3.36585 11.9685 3.40556 12.0553 3.47397 12.1131L5.62666 13.9319C5.67883 13.9759 5.744 14 5.81122 14H9.5546C9.62182 14 9.68699 13.9759 9.73916 13.9319L11.8919 12.1131C11.9603 12.0553 12 11.9685 12 11.8769V9.57289C12 9.48512 11.9635 9.40163 11.9 9.34384L9.74128 7.37965C9.68792 7.33111 9.61944 7.30435 9.54854 7.30435H5.81728C5.74638 7.30435 5.6779 7.33111 5.62454 7.37965L3.4658 9.34384C3.40228 9.40163 3.36585 9.48512 3.36585 9.57289V9.8913H1.75609C1.59445 9.8913 1.46341 9.75504 1.46341 9.58696V7.6087C1.46341 7.44061 1.33237 7.30435 1.17073 7.30435H0.292682C0.131038 7.30435 0 7.44061 0 7.6087V13.6957ZM4.92615 10.105C4.86447 10.1627 4.82926 10.2449 4.82926 10.3312V11.1146C4.82926 11.207 4.86967 11.2945 4.9391 11.3522L6.2125 12.4116C6.2644 12.4547 6.32888 12.4783 6.39534 12.4783H8.97048C9.03694 12.4783 9.10142 12.4547 9.15332 12.4116L10.4267 11.3522C10.4961 11.2945 10.5366 11.207 10.5366 11.1146V10.3312C10.5366 10.2449 10.5013 10.1627 10.4397 10.105L9.15663 8.90421C9.10289 8.85392 9.03314 8.82609 8.96084 8.82609H6.40498C6.33268 8.82609 6.26293 8.85392 6.20919 8.90421L4.92615 10.105Z" fill="#16274A"/>
<path d="M1.57931e-05 4.69744L2.82264e-05 6.23913L10.1606 3.91987C11.2347 3.67469 12 2.68525 12 1.54171V0L1.83945 2.31926C0.765311 2.56444 6.57079e-06 3.55389 1.57931e-05 4.69744Z" fill="url(#paint0_linear_975_4125)"/>
<defs>
<linearGradient id="paint0_linear_975_4125" x1="3.14028e-07" y1="4.71739" x2="11.4678" y2="1.88964" gradientUnits="userSpaceOnUse">
<stop stop-color="#E8D400"/>
<stop offset="1" stop-color="#CA9217"/>
</linearGradient>
</defs>
</svg>
