<svg width="24" height="24" viewBox="0 0 24 24" fill="none" xmlns="http://www.w3.org/2000/svg">
<path fill-rule="evenodd" clip-rule="evenodd" d="M13 1H5C3.34315 1 2 2.34315 2 4V20C2 21.6569 3.34315 23 5 23H19C20.6569 23 22 21.6569 22 20V8.68182C22 8.38543 21.8685 8.10431 21.641 7.91431L13.641 1.23249C13.4612 1.08229 13.2343 1 13 1ZM12.637 3L20 9.15V20C20 20.5523 19.5523 21 19 21H5C4.44772 21 4 20.5523 4 20V4C4 3.44772 4.44772 3 5 3H12.637Z" fill="#16274A"/>
<path fill-rule="evenodd" clip-rule="evenodd" d="M13 1C13.5128 1 13.9355 1.38604 13.9933 1.88338L14 2V7H20C20.5128 7 20.9355 7.38604 20.9933 7.88338L21 8C21 8.51284 20.614 8.93551 20.1166 8.99327L20 9H13C12.4872 9 12.0645 8.61396 12.0067 8.11662L12 8V2C12 1.44772 12.4477 1 13 1Z" fill="#16274A"/>
<path fill-rule="evenodd" clip-rule="evenodd" d="M13 1H5C3.34315 1 2 2.34315 2 4V20C2 21.6569 3.34315 23 5 23H19C20.6569 23 22 21.6569 22 20V8.68182C22 8.38543 21.8685 8.10431 21.641 7.91431L13.641 1.23249C13.4612 1.08229 13.2343 1 13 1ZM12.637 3L20 9.15V20C20 20.5523 19.5523 21 19 21H5C4.44772 21 4 20.5523 4 20V4C4 3.44772 4.44772 3 5 3H12.637Z" fill="#16274A"/>
<path fill-rule="evenodd" clip-rule="evenodd" d="M13 1C13.5128 1 13.9355 1.38604 13.9933 1.88338L14 2V7H20C20.5128 7 20.9355 7.38604 20.9933 7.88338L21 8C21 8.51284 20.614 8.93551 20.1166 8.99327L20 9H13C12.4872 9 12.0645 8.61396 12.0067 8.11662L12 8V2C12 1.44772 12.4477 1 13 1Z" fill="#16274A"/>
</svg>
