<svg width="158" height="158" viewBox="0 0 158 158" fill="none" xmlns="http://www.w3.org/2000/svg">
<rect width="158" height="158" rx="79" fill="#E8EAED"/>
<path fill-rule="evenodd" clip-rule="evenodd" d="M47.3622 31.232C45.0782 31.8767 43.0919 33.4266 42.1426 35.3046C41.5645 36.4482 39.367 42.3511 39.0509 43.6098C38.68 45.0864 38.9119 47.3592 39.5852 48.8472L40.1549 50.1058L36.0297 50.1629L31.9043 50.2199L31.4523 50.7473L31 51.2747V57.0651V62.8556L31.4942 63.3513C32.0326 63.8909 32.4231 63.9595 33.1268 63.6381C33.9288 63.2718 34 62.797 34 57.8233V53.1332H39.0661H44.1321L50.518 54.9021C54.0303 55.8747 56.9457 56.7126 56.9967 56.7638C57.0479 56.8149 56.2356 58.2815 55.192 60.0227C54.1484 61.7642 52.5259 64.7324 51.5868 66.6191L49.879 70.0493H41.9395H34V69.1001C34 68.0744 33.6331 67.1574 33.1478 66.9707C32.5382 66.7364 31.9099 66.8645 31.4603 67.3154C31.0253 67.7513 31 67.8949 31 69.9211C31 71.9875 31.018 72.0835 31.4942 72.5611C31.9855 73.0534 32.0069 73.0566 34.8692 73.0566H37.75V99.533V126.009L38.1387 126.505L38.5272 127H79H119.473L119.861 126.505C120.23 126.034 120.25 125.778 120.25 121.418C120.25 116.759 120.189 116.294 119.516 115.776C119.134 115.482 118.366 115.482 117.984 115.776C117.329 116.28 117.25 116.788 117.25 120.503V124.181H102.531H87.8125V99.1825C87.8125 85.4335 87.8537 74.1843 87.9044 74.1843C88.0461 74.1843 89.5617 77.2752 90.4906 79.4591C93.1394 85.6867 94.8901 91.6191 95.9742 98.042C96.3278 100.137 96.4349 100.374 97.1663 100.677C97.6135 100.863 97.8242 100.859 98.2458 100.656C98.8647 100.359 101.048 97.3275 103.2 93.7787C104.031 92.4091 104.755 91.2883 104.809 91.2883C105.029 91.2883 109.051 94.3249 111.248 96.15C112.538 97.2215 113.784 98.1711 114.016 98.2598C114.573 98.4731 115.277 98.1906 115.664 97.599C115.951 97.1601 115.951 96.9896 115.658 95.1942C115.095 91.7375 114.053 87.1326 113.03 83.5821C112.138 80.4829 111.568 78.8191 109.86 74.3253L109.378 73.0566H113.314H117.25V92.1435C117.25 108.844 117.286 111.299 117.535 111.782C118.034 112.751 119.518 112.745 120.009 111.772C120.193 111.407 120.245 107.156 120.247 92.1811L120.25 73.0566H123.131C125.993 73.0566 126.015 73.0534 126.506 72.5611L127 72.0655V61.67V51.2747L126.548 50.7473L126.096 50.2199L121.97 50.1629L117.845 50.1058L118.415 48.8472C119.088 47.3592 119.32 45.0864 118.949 43.6098C118.633 42.3511 116.436 36.4482 115.857 35.3046C114.491 32.6014 111.089 30.7264 108.106 31.0328C106.403 31.2077 105.573 31.5583 95.6123 36.3136C86.9406 40.4533 86.611 40.593 86.0498 40.3627C84.2344 39.6175 84.2286 39.6169 79 39.6169C73.7714 39.6169 73.7656 39.6175 71.9502 40.3627C71.3892 40.593 71.0594 40.4531 62.3877 36.3126C57.4478 33.954 52.87 31.8239 52.2147 31.5791C50.6871 31.0087 48.6653 30.8642 47.3622 31.232ZM60.1877 38.5576C69.0171 42.7652 69.5849 43.065 69.4411 43.4441C69.3569 43.6662 69.2269 44.4182 69.1525 45.1154C69.0781 45.8125 68.9641 46.3581 68.8992 46.3279C68.8343 46.2976 67.7266 45.7071 66.4375 45.0156C60.8102 41.9972 54.7332 39.9789 51.2654 39.9768C48.6261 39.9753 46.2507 40.9119 45.1094 42.4041C44.4021 43.3289 44.347 43.8657 44.8887 44.5558C45.5093 45.3469 46.3407 45.2375 47.491 44.2132C48.7066 43.1311 49.5308 42.912 51.9062 43.0398C55.4903 43.2328 60.6739 45.1825 67.1406 48.7702L69.0625 49.8365V53.3644C69.0625 55.3047 69.022 56.8923 68.9725 56.8923C68.923 56.8923 63.502 55.4071 56.9256 53.5918C49.8614 51.6418 44.6618 50.1116 44.2186 49.8521C43.2648 49.294 42.9513 48.9393 42.3827 47.7765C41.7781 46.5395 41.6594 45.8149 41.875 44.6756C42.1358 43.2965 44.5585 36.8929 45.1293 36.0741C46.1086 34.6688 47.7046 33.9282 49.5625 34.0167C50.7167 34.0718 51.2791 34.3122 60.1877 38.5576ZM110.146 34.1525C111.134 34.4276 112.35 35.3086 112.924 36.166C113.504 37.0312 115.87 43.3298 116.129 44.6944C116.341 45.8151 116.22 46.5442 115.617 47.7765C115.049 48.9393 114.735 49.294 113.781 49.8521C113.338 50.1116 108.139 51.6418 101.074 53.5918C94.498 55.4071 89.077 56.8923 89.0275 56.8923C88.978 56.8923 88.9375 55.2934 88.9375 53.339V49.7857L90.3906 48.9324C94.3525 46.6055 100.739 43.9123 103.789 43.2822C105.446 42.9398 107.644 42.8952 108.677 43.1828C109.067 43.2914 109.808 43.7561 110.324 44.2156C111.408 45.181 112.171 45.3084 112.879 44.6425C113.553 44.0072 113.455 43.1986 112.582 42.2051C111.31 40.7555 109.211 39.9793 106.562 39.978C103.007 39.9763 96.4572 42.2073 90.7188 45.3748L89.0312 46.3063L88.8169 44.8473C88.699 44.045 88.5546 43.311 88.4963 43.2161C88.4138 43.0823 103.822 35.5976 106.938 34.2585C107.7 33.9307 109.175 33.882 110.146 34.1525ZM84.6441 43.0343C85.9195 43.8884 85.9369 44.0015 85.9371 51.4132C85.9375 58.7587 85.9137 58.9249 84.7426 59.7624C84.1701 60.1716 84.0334 60.1816 79 60.1816C71.5568 60.1816 72.0623 60.8206 72.0629 51.4132C72.0631 44.0015 72.0805 43.8884 73.3559 43.0343C73.9786 42.6174 74.1066 42.6077 79 42.6077C83.8934 42.6077 84.0214 42.6174 84.6441 43.0343ZM124 61.5912V70.0493H116.061H108.121L106.413 66.6191C105.474 64.7326 103.852 61.7642 102.808 60.0227C101.764 58.2815 100.952 56.8145 101.004 56.763C101.055 56.7115 103.909 55.8821 107.346 54.9201L113.594 53.1708L118.797 53.152L124 53.1332V61.5912ZM65.0067 58.8993L69.5312 60.1543L70.6562 61.3148C71.3421 62.0224 72.0558 62.5652 72.4844 62.7056C72.8712 62.8325 73.1875 63.0169 73.1875 63.1158C73.1875 63.2146 72.6109 64.1595 71.9061 65.2156C66.5819 73.1947 62.5662 82.3632 60.3498 91.6009C59.9819 93.1346 59.6161 94.6422 59.5373 94.9508C59.3952 95.5066 59.3838 95.4965 58.3396 93.8908C57.7596 92.9989 56.8283 91.4778 56.2698 90.5102C54.7909 87.9487 54.7765 87.9294 54.1793 87.7205C53.7694 87.5773 53.4983 87.5963 53.0993 87.7959C52.4011 88.1449 49.5076 90.1743 47.5009 91.7219C46.6249 92.3976 45.8781 92.9203 45.8412 92.8835C45.7369 92.779 46.5254 89.1979 47.2474 86.4954C49.7568 77.1044 53.6378 68.1199 58.7155 59.9466C59.5022 58.6802 60.2217 57.6442 60.3141 57.6442C60.4066 57.6442 62.5182 58.209 65.0067 58.8993ZM99.2824 59.9466C101.426 63.4018 102.236 64.8854 104.285 69.1095C107.087 74.8852 109.087 80.2617 110.753 86.4954C111.475 89.1979 112.263 92.779 112.159 92.8835C112.122 92.9203 111.375 92.3976 110.499 91.7219C108.492 90.1743 105.599 88.1449 104.901 87.7959C104.502 87.5963 104.231 87.5773 103.821 87.7205C103.224 87.9294 103.209 87.9487 101.73 90.5102C101.172 91.4778 100.24 92.9989 99.6604 93.8908C98.6162 95.4965 98.6048 95.5066 98.4627 94.9508C98.3839 94.6422 98.0181 93.1346 97.6502 91.6009C95.4338 82.3632 91.4181 73.1947 86.0939 65.2156C85.3891 64.1595 84.8125 63.2146 84.8125 63.1158C84.8125 63.0169 85.129 62.8318 85.5156 62.7041C85.939 62.5645 86.6622 62.0166 87.3331 61.327L88.4476 60.1816L92.8643 58.929C95.2937 58.2402 97.4101 57.6693 97.5676 57.6603C97.7393 57.6507 98.4258 58.5655 99.2824 59.9466ZM81.3724 63.6118C81.8845 64.2659 85.5625 69.8104 85.5625 69.9282C85.5625 69.9948 82.6094 70.0493 79 70.0493C75.3906 70.0493 72.4375 70.0079 72.4375 69.9572C72.4375 69.8061 74.0774 67.2709 75.5074 65.2111L76.8438 63.286L78.9794 63.2845C80.7914 63.283 81.154 63.3327 81.3724 63.6118ZM48.1396 74.3253C46.4318 78.8191 45.8622 80.4829 44.9697 83.5821C43.9472 87.1326 42.9051 91.7375 42.3419 95.1942C42.0492 96.9896 42.0488 97.1601 42.3359 97.599C42.7225 98.1906 43.4273 98.4731 43.9844 98.2598C44.2163 98.1711 45.4617 97.2215 46.7519 96.15C48.949 94.3249 52.9707 91.2883 53.1906 91.2883C53.245 91.2883 53.9691 92.4089 54.7997 93.7787C56.9519 97.3275 59.1353 100.359 59.7542 100.656C60.1758 100.859 60.3865 100.863 60.8337 100.677C61.5651 100.374 61.6722 100.137 62.0258 98.042C63.1099 91.6191 64.8606 85.6867 67.5094 79.4591C68.4383 77.2752 69.9539 74.1843 70.0956 74.1843C70.1462 74.1843 70.1875 85.4335 70.1875 99.1825V124.181H55.4688H40.75V98.6186V73.0566H44.6858H48.6218L48.1396 74.3253ZM85 98.6186V124.181H79H73V98.6186V73.0566H79H85V98.6186Z" fill="#16274A"/>
</svg>
