<svg width="48" height="48" viewBox="0 0 48 48" fill="none" xmlns="http://www.w3.org/2000/svg">
<g clip-path="url(#clip0_1047_9482)">
<path d="M24 48C37.255 48 48 37.255 48 24C48 10.745 37.255 0 24 0C10.745 0 0 10.745 0 24C0 37.255 10.745 48 24 48Z" fill="#D6001C"/>
<path d="M13.6499 13.1689V21.3329C14.8929 19.8509 16.3829 19.1049 18.1109 19.1049C19.0009 19.1049 19.7979 19.2749 20.5129 19.6119C21.2299 19.9469 21.7659 20.3769 22.1279 20.8989C22.4919 21.4259 22.7379 22.0029 22.8709 22.6389C23.0029 23.2719 23.0689 24.2569 23.0689 25.5929V34.3219H19.2069V26.4599C19.2069 24.8999 19.1369 23.9119 18.9899 23.4919C18.8522 23.0805 18.579 22.728 18.2149 22.4919C17.8429 22.2409 17.3799 22.1169 16.8209 22.1169C16.1809 22.1169 15.6069 22.2769 15.1079 22.5949C14.5979 22.9149 14.2319 23.3929 13.9999 24.0319C13.7639 24.6719 13.6459 25.6169 13.6499 26.8679L13.6459 34.3219H9.78894V13.1689H13.6509M28.8569 13.1689V21.3329C30.1009 19.8509 31.5899 19.1049 33.3169 19.1049C34.2039 19.1049 35.0069 19.2749 35.7229 19.6119C36.4369 19.9469 36.9729 20.3769 37.3329 20.8989C37.6962 21.4224 37.9491 22.0145 38.0759 22.6389C38.2089 23.2719 38.2749 24.2569 38.2749 25.5929V34.3219H34.4169V26.4599C34.4169 24.8999 34.3439 23.9119 34.1969 23.4919C34.0592 23.08 33.7851 22.7272 33.4199 22.4919C33.0519 22.2409 32.5849 22.1169 32.0259 22.1169C31.3869 22.1169 30.8129 22.2769 30.3129 22.5949C29.8099 22.9149 29.4419 23.3929 29.2069 24.0319C28.9749 24.6719 28.8569 25.6169 28.8569 26.8679V34.3219H24.9999V13.1689H28.8569Z" fill="#F8F8F8"/>
</g>
<defs>
<clipPath id="clip0_1047_9482">
<rect width="48" height="48" fill="white"/>
</clipPath>
</defs>
</svg>
