<svg width="158" height="158" viewBox="0 0 158 158" fill="none" xmlns="http://www.w3.org/2000/svg">
<rect width="158" height="158" rx="79" fill="#E8EAED"/>
<path fill-rule="evenodd" clip-rule="evenodd" d="M76.6576 32.137C75.7073 32.373 75.4811 32.4895 59.9696 40.7362C52.8537 44.5194 46.7291 47.8516 46.3593 48.141C44.855 49.3188 44.0282 51.9416 44.5493 53.883L44.8081 54.847L42.5447 54.9418C40.8392 55.0133 40.016 55.1385 39.2039 55.4497C37.7873 55.9927 36.2344 57.4235 35.5553 58.8115L35.0314 59.8823L34.9376 86.1354L34.8439 112.388L33.3466 112.444C31.1198 112.527 31 112.683 31 115.501C31 118.264 31.2064 119.384 32.0238 121.057C32.8848 122.819 34.4315 124.303 36.3823 125.238L37.8439 125.938L78.4389 125.989C105.647 126.023 119.332 125.976 119.938 125.847C121.466 125.521 122.897 124.701 124.211 123.4C126.303 121.327 126.995 119.407 127 115.66C127.002 113.742 126.956 113.414 126.62 112.986C126.271 112.541 126.1 112.493 124.698 112.443L123.159 112.388L123.065 86.1354L122.971 59.8823L122.453 58.8235C121.882 57.6571 120.523 56.2661 119.383 55.6825C118.39 55.1742 116.768 54.8951 114.808 54.8951H113.182L113.447 53.9071C113.948 52.0425 113.296 49.7554 111.878 48.3974C111.413 47.9525 107.788 45.9171 101.633 42.645C91.7313 37.3812 91.2411 37.1721 90.562 37.9255C90.1495 38.383 90.1598 39.5136 90.5798 39.8767C90.7602 40.0327 95.0424 42.3484 100.096 45.0228C109.799 50.1587 110.546 50.6423 110.79 51.9486C110.938 52.7371 110.522 54.0838 109.98 54.5761C109.611 54.9109 91.6488 64.5 91.4283 64.4797C91.3484 64.4723 89.0048 61.8442 86.2203 58.6393C79.3392 50.7189 79.7341 51.1313 79.0312 51.1313C78.2523 51.1313 77.6888 51.7081 77.6888 52.5051C77.6888 53.0508 78.364 53.8996 83.2416 59.4844C86.2957 62.9815 88.7216 65.9113 88.6324 65.9952C88.5433 66.0791 86.8672 66.9973 84.9078 68.0356C80.7542 70.2367 79.7144 70.5489 77.8295 70.1614C76.8938 69.9691 73.8041 68.4033 62.5009 62.3935C54.7147 58.2537 48.1997 54.7355 48.0229 54.5754C47.846 54.4154 47.5618 53.9175 47.3912 53.4688C46.9843 52.3995 47.162 51.4753 47.9336 50.6476C48.3544 50.1965 52.535 47.8753 62.0321 42.8197C69.4573 38.8672 76.0296 35.4281 76.6371 35.1777C77.5685 34.7936 77.9855 34.7322 79.2937 34.7872C80.8104 34.851 80.9117 34.8861 83.7415 36.3337C86.5081 37.749 86.6611 37.8035 87.1744 37.5566C87.8287 37.2418 88.1441 36.4608 87.8972 35.7667C87.7648 35.3943 87.2019 34.987 85.6578 34.1462C82.2325 32.2806 81.6294 32.0755 79.3764 32.0088C78.2935 31.9768 77.0701 32.0344 76.6576 32.137ZM51.1368 59.5529L54.584 61.3878L48.4003 61.4819L42.2168 61.576L41.8584 62.0204C41.5104 62.4521 41.5003 63.0989 41.5003 85.1003C41.5003 107.107 41.5102 107.748 41.8588 108.18C42.2166 108.624 42.2239 108.625 46.5268 108.625C50.5015 108.625 50.8669 108.597 51.2309 108.266C51.746 107.798 51.7559 106.779 51.2506 106.272C50.9041 105.924 50.6256 105.896 47.5942 105.896H44.3129V85.1003V64.3048H50.5943H56.8757V67.6062C56.8757 71.7003 57.1401 73.1701 58.313 75.5965C59.0424 77.1053 59.4294 77.6346 60.7922 78.9874C63.0602 81.2389 65.545 82.449 70.2824 83.6091C76.2872 85.0796 83.8233 84.9183 89.361 83.2007C89.6382 83.1147 89.6892 83.224 89.6892 83.9051C89.6892 84.5756 89.415 85.1873 88.0597 87.5404C86.6306 90.0222 86.4204 90.5036 86.3493 91.4583C86.2505 92.7826 86.633 93.9061 87.4777 94.7733C88.5191 95.8424 89.0233 96.0156 91.0955 96.0156C92.7438 96.0156 93.0678 95.9597 93.7757 95.5528C94.6809 95.0326 95.622 93.7444 95.8024 92.7786C96.0794 91.297 95.82 90.4859 94.1276 87.5404L92.5018 84.7113L92.5132 83.4002L92.5244 82.0892L94.055 81.3517C95.2697 80.7666 95.92 80.281 97.2055 78.9992C98.5696 77.6393 98.9619 77.1021 99.6898 75.5965C100.863 73.1701 101.127 71.7003 101.127 67.6062V64.3048H107.408H113.69V85.1003V105.896H84.4681C55.422 105.896 55.2443 105.898 54.9047 106.275C54.4365 106.794 54.4695 107.704 54.9746 108.212L55.3862 108.625H85.5858H115.786L116.144 108.18C116.493 107.748 116.502 107.107 116.502 85.1003C116.502 63.0989 116.492 62.4521 116.144 62.0204L115.786 61.576L109.602 61.4819L103.419 61.3878L106.866 59.5529L110.313 57.7181H113.419C115.127 57.7181 116.889 57.8103 117.334 57.9228C118.378 58.1867 119.458 59.086 119.898 60.0571C120.229 60.7903 120.244 61.9336 120.248 86.6529L120.253 112.483H79.0014H37.7502L37.7543 86.6529C37.7583 61.8173 37.7719 60.7933 38.1095 60.0473C38.5205 59.1391 39.5135 58.2794 40.5118 57.9678C40.9284 57.8377 42.5486 57.741 44.4543 57.7325L47.6897 57.7181L51.1368 59.5529ZM66.8135 67.8837C74.8541 72.1693 75.6295 72.5472 77.0817 72.8903C78.6091 73.2508 80.3388 73.1498 81.9193 72.6076C82.5317 72.3976 84.4671 71.4615 86.2203 70.5275C87.9735 69.5937 89.4724 68.8277 89.5514 68.8255C89.6301 68.8232 89.6723 71.3804 89.6451 74.5078L89.5954 80.1941L88.0954 80.6153C85.444 81.3594 83.3046 81.6579 79.9389 81.7533C76.2833 81.8568 73.7124 81.5884 70.5061 80.7686C64.5528 79.2467 61.7014 77.1039 60.222 73.0408C59.8681 72.0692 59.8055 71.4257 59.7331 68.0068L59.6499 64.0871L60.2786 64.4114C60.6242 64.5898 63.565 66.1524 66.8135 67.8837ZM98.2664 68.5392C98.195 71.3941 98.1183 72.1019 97.7785 73.0408C96.9676 75.2807 95.5879 77.0731 93.7128 78.3221C93.1665 78.6861 92.6705 78.984 92.6107 78.984C92.5507 78.984 92.5018 76.3333 92.5018 73.0933V67.2027L95.3612 65.6751L98.2207 64.1473L98.2859 64.6494C98.3217 64.9257 98.3129 66.6761 98.2664 68.5392ZM92.1127 89.6864C93.2148 91.6194 93.3133 92.31 92.5702 92.8966C92.2134 93.1784 91.8037 93.2868 91.0955 93.2868C89.8568 93.2868 89.1267 92.7839 89.1267 91.931C89.1267 91.4534 90.8553 88.0173 91.0955 88.0173C91.1315 88.0173 91.5893 88.7684 92.1127 89.6864ZM48.8983 93.7488C48.6452 94.0028 48.438 94.43 48.438 94.6982C48.438 94.9664 48.6452 95.3936 48.8983 95.6477L49.3585 96.1097H59.3049C69.0011 96.1097 69.2605 96.1003 69.6261 95.7333C70.1845 95.1728 70.1262 94.1656 69.507 93.6769C69.0216 93.2935 68.8438 93.2868 59.1858 93.2868H49.3585L48.8983 93.7488ZM48.8267 99.8049C48.6129 100.078 48.438 100.412 48.438 100.549C48.438 101.068 48.8807 101.738 49.3532 101.934C49.6962 102.077 54.2049 102.124 64.2522 102.088L78.6595 102.038L79.0181 101.593C79.4827 101.017 79.4752 100.161 79.0014 99.6854C78.6327 99.3154 78.3764 99.309 63.9209 99.309H49.2152L48.8267 99.8049ZM67.4904 115.635C68.0846 117.543 69.3377 119.087 71.0091 119.972L71.9699 120.481H79.0014H86.0328L87.0292 119.954C88.6633 119.09 89.9224 117.529 90.5123 115.635C90.6091 115.324 91.5796 115.305 107.428 115.305H124.242L124.148 116.958C124.074 118.267 123.943 118.838 123.521 119.705C122.856 121.066 121.509 122.31 120.143 122.823C119.116 123.209 119.004 123.21 79.0014 123.21C38.9984 123.21 38.8865 123.209 37.8601 122.823C36.4935 122.31 35.1463 121.066 34.4822 119.705C34.0595 118.838 33.9288 118.267 33.8544 116.958L33.7606 115.305H50.5742C66.4231 115.305 67.3937 115.324 67.4904 115.635ZM87.6266 115.46C87.6266 115.803 86.2025 117.253 85.6284 117.494C85.1512 117.694 83.6656 117.752 78.9888 117.752C72.2435 117.752 72.2399 117.751 71.0367 116.415C70.6735 116.011 70.3761 115.596 70.3761 115.493C70.3761 115.371 73.3929 115.305 79.0014 115.305C83.7453 115.305 87.6266 115.375 87.6266 115.46Z" fill="#16274A"/>
</svg>
