<svg width="50" height="50" viewBox="0 0 50 50" fill="none" xmlns="http://www.w3.org/2000/svg">
<path d="M39.2843 36.8351C39.2843 37.7942 38.7409 38.7394 37.6993 39.5921C36.6576 40.4448 35.1479 41.1803 33.2958 41.7374C31.4437 42.2944 29.3027 42.6569 27.0511 42.7947C24.7995 42.9325 22.5024 42.8416 20.351 42.5296C18.1995 42.2176 16.256 41.6934 14.6822 41.0008C13.1083 40.3082 11.9497 39.4671 11.3027 38.5476C10.6557 37.6281 10.539 36.6567 10.9624 35.7144" stroke="#16274A" stroke-width="2.08333" stroke-linecap="round"/>
<path d="M14.4469 23.3828C11.3028 16.2231 16.7495 8.18473 24.998 8.18473C33.2466 8.18473 38.6933 16.2231 35.5492 23.3828L30.5783 34.7024C29.6434 36.8313 27.4547 38.2443 24.998 38.2443C22.5414 38.2443 20.3527 36.8313 19.4178 34.7024L14.4469 23.3828Z" stroke="#16274A" stroke-width="2.08333"/>
<circle cx="24.9992" cy="17.8576" r="3.57143" stroke="#16274A" stroke-width="2.08333"/>
</svg>
