<svg width="46" height="46" viewBox="0 0 46 46" fill="none" xmlns="http://www.w3.org/2000/svg">
<g filter="url(#filter0_dd_1179_14749)">
<rect x="40" y="2" width="34" height="34" rx="17" transform="rotate(90 40 2)" fill="white"/>
<path d="M20.2793 24.6633C20.1004 24.45 20 24.1615 20 23.8607C20 23.56 20.1004 23.2715 20.2793 23.0582L23.6796 18.9715L20.2793 14.9418C20.1004 14.7285 20 14.44 20 14.1393C20 13.8385 20.1004 13.55 20.2793 13.3367C20.3686 13.23 20.4748 13.1453 20.5919 13.0875C20.7089 13.0298 20.8345 13 20.9613 13C21.0881 13 21.2136 13.0298 21.3307 13.0875C21.4477 13.1453 21.554 13.23 21.6433 13.3367L25.7159 18.1633C25.8059 18.2691 25.8774 18.395 25.9261 18.5338C25.9749 18.6725 26 18.8213 26 18.9715C26 19.1218 25.9749 19.2706 25.9261 19.4093C25.8774 19.548 25.8059 19.6739 25.7159 19.7798L21.6433 24.6633C21.554 24.77 21.4477 24.8547 21.3307 24.9125C21.2136 24.9702 21.0881 25 20.9613 25C20.8345 25 20.7089 24.9702 20.5919 24.9125C20.4748 24.8547 20.3686 24.77 20.2793 24.6633Z" fill="#16274A"/>
</g>
<defs>
<filter id="filter0_dd_1179_14749" x="0" y="0" width="46" height="46" filterUnits="userSpaceOnUse" color-interpolation-filters="sRGB">
<feFlood flood-opacity="0" result="BackgroundImageFix"/>
<feColorMatrix in="SourceAlpha" type="matrix" values="0 0 0 0 0 0 0 0 0 0 0 0 0 0 0 0 0 0 127 0" result="hardAlpha"/>
<feMorphology radius="2" operator="erode" in="SourceAlpha" result="effect1_dropShadow_1179_14749"/>
<feOffset dy="2"/>
<feGaussianBlur stdDeviation="2"/>
<feColorMatrix type="matrix" values="0 0 0 0 0.0627451 0 0 0 0 0.0941176 0 0 0 0 0.156863 0 0 0 0.06 0"/>
<feBlend mode="normal" in2="BackgroundImageFix" result="effect1_dropShadow_1179_14749"/>
<feColorMatrix in="SourceAlpha" type="matrix" values="0 0 0 0 0 0 0 0 0 0 0 0 0 0 0 0 0 0 127 0" result="hardAlpha"/>
<feMorphology radius="2" operator="erode" in="SourceAlpha" result="effect2_dropShadow_1179_14749"/>
<feOffset dy="4"/>
<feGaussianBlur stdDeviation="4"/>
<feColorMatrix type="matrix" values="0 0 0 0 0.0627451 0 0 0 0 0.0941176 0 0 0 0 0.156863 0 0 0 0.1 0"/>
<feBlend mode="normal" in2="effect1_dropShadow_1179_14749" result="effect2_dropShadow_1179_14749"/>
<feBlend mode="normal" in="SourceGraphic" in2="effect2_dropShadow_1179_14749" result="shape"/>
</filter>
</defs>
</svg>
