<svg width="205" height="191" viewBox="0 0 205 191" fill="none" xmlns="http://www.w3.org/2000/svg">
<path fill-rule="evenodd" clip-rule="evenodd" d="M98.0786 0.809052C86.4314 2.66584 77.3042 10.8675 74.438 22.0526C73.8194 24.4665 73.6385 26.4712 73.6346 30.9565C73.6298 36.5919 73.5984 36.807 72.442 39.0823C71.7888 40.3678 71.2546 41.7513 71.2546 42.1571C71.2546 42.5626 71.1631 42.8947 71.0514 42.8947C70.9393 42.8947 69.7662 42.1575 68.444 41.2569C65.7543 39.4243 60.9053 37.3747 59.2114 37.3537C58.0109 37.339 56.1485 38.8764 56.1485 39.8822C56.1485 41.2212 57.1152 42.4519 58.6787 43.1038C64.8965 45.6961 68.6138 48.3873 71.2399 52.1973C73.9276 56.0957 75.3821 61.5757 75.1504 66.9274L75.0311 69.6753L74.4348 68.3585C73.7347 66.812 67.9523 60.3572 66.423 59.415C64.5729 58.2747 63.0273 58.6119 57.547 61.3507C50.9122 64.6663 46.312 65.8899 39.4522 66.1645C33.8363 66.389 32.6191 66.7207 31.4643 68.3391C30.0292 70.3506 29.7692 69.8126 30.0495 65.4102C30.3568 60.5814 31.0238 57.8926 32.7801 54.4036C34.5944 50.7991 38.8317 46.6602 42.4488 44.9586C46.9977 42.8185 47.1619 42.7169 47.7522 41.6671C48.5405 40.2658 48.0556 38.6824 46.6097 37.9365C45.5285 37.3783 45.247 37.3922 43.2164 38.1043C36.1189 40.5943 29.4242 46.7475 26.5162 53.4542C24.9742 57.0099 24.3318 60.5485 24.075 66.8953C23.8508 72.4474 23.7025 73.471 22.89 75.0862C20.0981 80.6331 23.373 87.6639 29.5168 89.3152C30.8751 89.6802 31.0644 89.8889 31.3001 91.2807C31.7724 94.0714 34.15 98.3687 36.6715 100.99L39.0547 103.466V106.03V108.594L25.8369 113.678C18.5668 116.475 11.8168 119.221 10.8361 119.782C6.94389 122.005 3.27151 126.403 1.57208 130.874C0.718185 133.121 0.703476 133.545 0.583423 159.281C0.462971 185.181 0.469332 185.422 1.30136 187.138C1.80026 188.166 2.73485 189.237 3.60345 189.776L5.06596 190.684L52.0495 190.79C91.4737 190.878 99.2931 190.806 100.647 190.34C102.031 189.864 102.493 189.864 103.876 190.34C105.231 190.806 113.05 190.878 152.474 190.79L199.458 190.684L200.92 189.776C201.779 189.243 202.723 188.168 203.206 187.172C203.978 185.58 204.029 184.789 204.029 174.472V163.471L203.053 162.497C201.883 161.329 200.48 161.25 199.204 162.281C198.268 163.036 198.264 163.075 198.066 173.886L197.868 184.733L192.004 184.843L186.14 184.952V162.595V140.237L185.221 139.374C184.085 138.309 182.554 138.269 181.315 139.27L180.376 140.028L180.267 162.479L180.158 184.931H169.435C163.537 184.931 158.711 184.83 158.711 184.705C158.711 184.581 160.137 182.893 161.88 180.953C163.622 179.013 165.169 176.943 165.318 176.353C165.486 175.684 164.309 167.729 162.193 155.229C159.13 137.141 158.854 135.091 159.376 134.297C159.923 133.462 160.028 133.446 161.335 133.991C163.166 134.755 165.527 134.152 166.593 132.649C167.015 132.055 168.833 128.622 170.633 125.022C172.434 121.421 173.945 118.431 173.993 118.378C174.215 118.126 190.339 124.667 191.679 125.552C193.76 126.926 195.969 129.714 196.982 132.241C197.721 134.088 197.851 135.425 198.045 143.16C198.292 153.057 198.38 153.35 201.094 153.35C202.146 153.35 202.754 153.088 203.322 152.389C204.058 151.482 204.092 150.914 203.934 142.291C203.786 134.23 203.668 132.887 202.926 130.874C201.297 126.456 197.6 122.017 193.688 119.782C192.707 119.221 185.957 116.475 178.687 113.678L165.469 108.594V105.854C165.469 103.115 165.47 103.113 167.484 100.913C170.041 98.1203 171.596 95.4022 172.462 92.2115C173.038 90.0857 173.304 89.6576 174.176 89.4489C176.164 88.9732 178.106 87.7457 179.662 85.9821C182.494 82.7704 182.971 78.7137 180.978 74.7898C179.821 72.5145 179.79 72.2994 179.785 66.664C179.776 56.7309 177.601 51.0519 171.432 44.8582C165.857 39.2609 159.337 36.5689 151.321 36.5534C145.371 36.5423 139.033 38.5654 134.76 41.8393C132.923 43.2466 132.872 43.2609 132.872 42.3527C132.872 41.8393 132.337 40.3678 131.684 39.0823C130.537 36.8252 130.496 36.5574 130.492 31.2687C130.485 24.5101 129.835 21.3468 127.42 16.3251C125.872 13.1047 125.096 12.0545 121.988 8.96663C119.047 6.04536 117.723 5.05348 114.983 3.72001C113.124 2.81542 110.519 1.80093 109.192 1.46528C106.201 0.708674 100.733 0.38572 98.0786 0.809052ZM106.436 6.99042C114.901 8.76428 121.802 15.3341 123.92 23.6365C124.261 24.9727 124.516 27.6476 124.507 29.7861L124.49 33.5711L123.797 32.2737C122.808 30.4237 116.736 23.9554 115.285 23.2068C113.579 22.326 112.033 22.6831 108.371 24.8037C102.281 28.3304 95.6533 30.1094 87.5397 30.3943C82.9169 30.5566 81.6619 30.9632 80.7953 32.5792C79.9382 34.1773 79.6027 33.3283 79.6027 29.5615C79.6027 22.6747 81.4818 18.005 86.15 13.2928C91.7126 7.67759 98.9635 5.42484 106.436 6.99042ZM115.72 31.752L118.163 34.4955V42.5896C118.163 47.0415 117.968 51.7351 117.73 53.0197C116.381 60.3057 110.534 65.4448 103.151 65.8332C98.0516 66.1018 94.545 64.8889 91.0877 61.6614C86.8174 57.6748 85.9631 54.7714 85.9631 44.2421V36.6308L89.6403 36.3582C97.0021 35.8119 104.296 33.7615 110.014 30.63C111.544 29.7916 112.904 29.0842 113.036 29.0572C113.169 29.0303 114.376 30.2431 115.72 31.752ZM80.0002 43.7021C80.0002 47.5537 79.9744 47.67 79.2091 47.2613C78.1596 46.7003 77.2175 44.8177 77.2175 43.2807C77.2175 42.4384 77.5908 41.6675 78.3795 40.8804C79.0187 40.2424 79.6448 39.7207 79.7708 39.7207C79.8969 39.7207 80.0002 41.5124 80.0002 43.7021ZM125.879 40.9415C127.045 42.3242 127.201 43.9576 126.327 45.6434C125.838 46.5884 124.993 47.2589 124.292 47.2589C124.201 47.2589 124.126 45.5628 124.126 43.4898C124.126 41.4168 124.289 39.7207 124.488 39.7207C124.687 39.7207 125.313 40.2702 125.879 40.9415ZM156.938 43.1002C164.724 45.0792 171.165 51.4312 173.227 59.1646C173.563 60.4247 173.806 63.1004 173.804 65.5094L173.8 69.6753L173.062 68.0883C172.657 67.2155 170.617 64.7374 168.53 62.5814L164.735 58.6615L162.617 58.8571C161.083 58.9992 159.726 59.5074 157.689 60.7048C151.853 64.1331 143.493 66.3029 136.119 66.3029H132.351L130.838 67.8899C130.006 68.7628 129.229 69.4769 129.111 69.4769C128.721 69.4769 128.888 62.4136 129.33 60.2719C129.568 59.1158 130.463 56.7059 131.318 54.917C133.988 49.3363 139.187 45.0229 145.394 43.2399C148.407 42.3742 153.824 42.3087 156.938 43.1002ZM80.804 55.6899C81.5593 58.9274 83.9254 63.0762 86.4601 65.6074C88.7284 67.8725 88.7458 67.9078 88.7458 70.2411V72.5922L85.665 73.7884L82.5841 74.9842L81.8972 74.1153C81.328 73.3948 81.2083 72.3633 81.1988 68.0883C81.1856 62.3918 80.7416 58.9274 79.6138 55.7252C78.8943 53.6823 78.8935 53.6069 79.5931 53.6069C80.1413 53.6069 80.4371 54.1152 80.804 55.6899ZM124.186 56.4834C123.315 59.0079 123.175 60.185 123.042 66.1046C122.894 72.7477 122.548 74.6347 121.479 74.6347C121.19 74.6347 119.789 74.1693 118.366 73.6007L115.778 72.5664V69.9431C115.778 67.3329 115.788 67.3095 117.742 65.3234C120.308 62.7167 122.281 59.3793 123.148 56.1811C123.654 54.3151 124.03 53.6069 124.512 53.6069C125.105 53.6069 125.07 53.9223 124.186 56.4834ZM66.4488 67.7491L68.8694 70.3851L68.8614 77.9654C68.8519 87.0264 68.5076 89.7516 66.9605 93.0066C61.7687 103.931 46.0214 104.927 39.2594 94.757C36.9637 91.3045 36.6787 89.7306 36.6739 80.4867L36.6695 72.2542L38.9553 72.2518C45.1906 72.2455 54.8756 69.7356 60.3281 66.7132C61.8554 65.8661 63.3131 65.1599 63.5667 65.1432C63.8208 65.1262 65.1179 66.299 66.4488 67.7491ZM165.201 67.7042L167.518 70.2696L167.388 80.0896L167.258 89.9095L165.989 92.584C160.416 104.325 144.024 105.05 137.445 93.8449C135.797 91.0367 135.271 87.5977 135.264 79.5544L135.257 72.3736L139.61 72.1098C145.728 71.7388 152.096 70.0574 157.647 67.348C160.091 66.1549 162.269 65.1698 162.488 65.1587C162.706 65.1476 163.927 66.293 165.201 67.7042ZM102.298 71.8527C104.198 71.8555 106.579 71.5952 107.665 71.2667C108.738 70.9417 109.661 70.6739 109.715 70.6715C109.77 70.6692 109.815 71.3813 109.815 72.2546C109.815 73.665 109.405 74.3486 106.138 78.3832C104.116 80.8811 102.348 82.8895 102.211 82.8462C102.073 82.8034 100.329 80.7557 98.3346 78.2959C95.1556 74.3748 94.7088 73.6337 94.7088 72.2812V70.739L96.7958 71.2936C97.9435 71.5984 100.42 71.8503 102.298 71.8527ZM77.1022 77.7412C77.6333 79.0037 77.6421 79.4028 77.1682 80.743C76.8673 81.5933 76.2189 82.5522 75.7268 82.8744L74.8323 83.46V79.4302C74.8323 75.4687 74.8462 75.4079 75.6612 75.8428C76.1167 76.0864 76.7655 76.9406 77.1022 77.7412ZM175.586 77.1064C176.843 78.8982 176.12 81.9488 174.194 82.9771C173.45 83.3747 173.42 83.233 173.42 79.3957C173.42 75.5583 173.45 75.4167 174.194 75.8142C174.62 76.0416 175.247 76.6232 175.586 77.1064ZM30.7066 79.594C30.7066 81.6671 30.5436 83.3632 30.3444 83.3632C30.1453 83.3632 29.5192 82.8137 28.9531 82.1424C27.5609 80.4911 27.5375 78.1582 28.8998 76.799C29.4365 76.2633 30.0626 75.8249 30.2912 75.8249C30.5508 75.8249 30.7066 77.2366 30.7066 79.594ZM129.294 79.6079C129.294 83.2616 129.267 83.3767 128.503 82.9688C127.523 82.4451 126.511 80.555 126.511 79.2473C126.511 78.2709 128.241 75.8249 128.932 75.8249C129.131 75.8249 129.294 77.5274 129.294 79.6079ZM94.477 82.9664L97.8735 87.1323L96.7883 88.0238C95.0161 89.4791 91.5186 91.8183 91.3644 91.6513C91.2857 91.5664 89.9452 88.9482 88.3857 85.8333C85.8924 80.8525 85.6356 80.1396 86.2537 79.9182C86.6405 79.7797 87.762 79.354 88.7458 78.9727C89.7297 78.5911 90.6576 78.3963 90.8074 78.5399C90.9573 78.6831 92.6086 80.6752 94.477 82.9664ZM118.266 79.917C118.879 80.1364 118.61 80.8795 116.083 85.9369C114.323 89.4604 113.015 91.6354 112.724 91.5235C112.462 91.4231 110.978 90.4198 109.427 89.2942L106.607 87.2474L107.936 85.6028C108.667 84.6982 110.297 82.672 111.558 81.0997L113.851 78.2407L115.709 78.9541C116.731 79.3461 117.882 79.7793 118.266 79.917ZM84.3253 91.199C85.8324 94.1996 87.4614 97.0106 87.9452 97.4458C88.854 98.2635 91.6399 98.4972 93.3174 97.8969C93.8907 97.6914 94.2524 97.8386 94.6142 98.425C95.0328 99.103 94.8555 100.787 93.5412 108.605C92.6754 113.757 91.9054 118.033 91.8303 118.108C91.7551 118.183 86.0236 116.064 79.0934 113.401L66.4934 108.557L66.4886 105.692C66.4842 102.95 66.5363 102.789 67.7106 101.923C70.1248 100.143 73.2215 94.9177 73.8524 91.5616C74.1649 89.9 74.4475 89.6409 76.7325 88.9216C77.6683 88.6273 79.0994 87.7988 79.9128 87.0815C80.7261 86.3638 81.4349 85.7695 81.4882 85.7603C81.5414 85.7512 82.8179 88.1988 84.3253 91.199ZM124.498 87.3585C125.334 88.0282 126.783 88.8018 127.718 89.0776C129.378 89.5668 129.444 89.6513 130.369 92.4952C131.466 95.8667 134.213 100.206 136.472 102.137C137.995 103.438 138.039 103.547 138.035 106.016L138.03 108.557L125.43 113.401C118.5 116.064 112.769 118.183 112.693 118.108C112.618 118.033 111.848 113.757 110.982 108.605C109.668 100.787 109.491 99.103 109.91 98.425C110.271 97.8386 110.633 97.6914 111.206 97.8969C111.644 98.0532 112.838 98.1941 113.86 98.2092C116.407 98.2472 117.055 97.5355 120.139 91.3216C121.553 88.4721 122.771 86.1404 122.845 86.1404C122.919 86.1404 123.663 86.6883 124.498 87.3585ZM103.958 92.7011C106.447 94.3888 105.717 95.6624 102.262 95.6624C98.8065 95.6624 98.0767 94.3888 100.565 92.7011C101.381 92.1476 102.145 91.6949 102.262 91.6949C102.379 91.6949 103.142 92.1476 103.958 92.7011ZM103.852 101.911C103.851 102.075 104.589 106.559 105.491 111.876L107.131 121.542L105.578 122.985C104.723 123.778 103.628 124.962 103.143 125.617L102.262 126.807L101.381 125.617C100.896 124.962 99.8027 123.78 98.9512 122.989L97.4032 121.552L99.0375 111.803C99.9363 106.441 100.672 101.955 100.672 101.834C100.672 101.713 101.387 101.614 102.262 101.614C103.136 101.614 103.852 101.747 103.852 101.911ZM50.1183 107.582C52.8764 107.99 55.1204 107.828 59.4281 106.911C60.4652 106.691 60.5213 106.754 60.5213 108.143C60.5213 109.4 60.0073 110.237 56.8982 114.042C54.9058 116.48 53.134 118.529 52.9615 118.595C52.7889 118.661 50.9321 116.608 48.8351 114.032C45.705 110.189 45.022 109.111 45.02 108.014C45.0176 106.765 45.0876 106.694 46.1108 106.915C46.7123 107.044 48.5155 107.344 50.1183 107.582ZM148.672 107.59C151.399 107.982 153.157 107.858 158.214 106.921C159.456 106.691 159.506 106.732 159.506 107.97C159.506 109.004 158.755 110.192 155.7 113.989C153.607 116.592 151.742 118.666 151.555 118.598C151.368 118.531 149.592 116.48 147.609 114.04C144.521 110.243 144.002 109.395 144.002 108.142C144.002 106.815 144.086 106.702 144.897 106.927C145.389 107.064 147.088 107.362 148.672 107.59ZM44.7819 118.51C46.6606 120.82 48.1979 122.868 48.1979 123.061C48.1979 123.254 46.8117 124.388 45.117 125.58L42.0362 127.748L39.1302 121.978C37.5322 118.805 36.2803 116.153 36.3487 116.085C36.596 115.838 40.4572 114.353 40.906 114.331C41.1588 114.32 42.9032 116.2 44.7819 118.51ZM67.1509 115.162L69.606 116.023L66.6504 121.913L63.6948 127.803L60.8158 125.75C59.2329 124.62 57.7763 123.558 57.58 123.388C57.2703 123.12 63.9635 114.336 64.4966 114.311C64.6059 114.306 65.8001 114.689 67.1509 115.162ZM143.757 118.708C145.699 121.119 147.13 123.228 146.937 123.394C146.744 123.561 145.291 124.62 143.708 125.75L140.829 127.803L137.882 121.932L134.936 116.06L136.985 115.225C138.111 114.765 139.302 114.374 139.63 114.357C139.958 114.339 141.815 116.297 143.757 118.708ZM166.03 115.158C167.252 115.625 168.242 116.116 168.231 116.249C168.219 116.383 166.922 119.036 165.347 122.145L162.483 127.798L159.211 125.469L155.94 123.139L159.535 118.725C161.512 116.296 163.283 114.31 163.469 114.31C163.655 114.31 164.808 114.691 166.03 115.158ZM34.0943 125.444C36.0573 129.386 37.9516 132.873 38.3042 133.193C39.457 134.239 41.3834 134.559 43.0582 133.983C44.4953 133.489 44.6316 133.511 45.1564 134.31C45.6553 135.07 45.3373 137.415 42.2902 155.435C38.3368 178.818 38.272 176.207 42.9306 181.315C44.5156 183.053 45.8127 184.578 45.8127 184.703C45.8127 184.828 40.9871 184.931 35.089 184.931H24.3652L24.2563 162.479L24.1474 140.028L23.2088 139.27C21.9697 138.269 20.4388 138.309 19.3031 139.374L18.3832 140.237V162.595V184.952L12.5196 184.843L6.65608 184.733V159.738C6.65608 136.504 6.70736 134.595 7.38634 132.651C8.26766 130.128 10.6787 126.983 12.8102 125.575C13.9976 124.791 29.2059 118.479 30.3178 118.309C30.4319 118.291 32.1313 121.502 34.0943 125.444ZM85.9612 122.427C92.2167 124.863 94.4738 126.319 96.5823 129.279C99.1078 132.824 99.0816 132.503 99.0816 160.008V184.931H93.327H87.5723L87.4634 162.479L87.3545 140.028L86.4159 139.27C85.1768 138.269 83.6459 138.309 82.5102 139.374L81.5903 140.237V162.584V184.931H70.5891H59.5875L60.5511 183.84C61.0806 183.24 62.46 181.729 63.6156 180.482C67.2999 176.509 67.3099 178.34 63.4837 155.738C61.6395 144.845 60.1349 135.665 60.14 135.337C60.1448 135.01 60.3794 134.44 60.6608 134.07C61.1152 133.474 61.3458 133.457 62.7045 133.923C64.4274 134.515 66.1137 134.206 67.3794 133.068C67.812 132.68 69.7523 129.2 71.6918 125.335L75.2183 118.309L77.7088 119.246C79.0783 119.761 82.7921 121.192 85.9612 122.427ZM133.07 125.728C135.432 130.347 137.026 132.998 137.761 133.528C139.02 134.437 141.643 134.552 142.621 133.742C143.128 133.323 143.33 133.365 143.803 133.989C144.118 134.403 144.379 135.01 144.384 135.337C144.389 135.665 142.881 144.836 141.031 155.717C137.194 178.298 137.205 176.462 140.89 180.472C142.041 181.724 143.425 183.24 143.965 183.84L144.946 184.931H133.94H122.933V162.639V140.348L122.069 139.429C121.014 138.309 119.379 138.243 118.108 139.27L117.169 140.028L117.06 162.479L116.951 184.931H111.186H105.42L105.53 159.242C105.64 133.746 105.648 133.538 106.513 131.667C107.535 129.458 110.764 125.926 112.705 124.893C114.749 123.805 129.065 118.325 129.294 118.542C129.403 118.646 131.103 121.88 133.07 125.728ZM54.653 128.593C57.1725 130.274 56.4037 131.37 52.7039 131.37C50.6451 131.37 50.1418 131.236 49.8003 130.599C49.4469 129.94 49.6318 129.656 51.0784 128.634C52.0086 127.977 52.8589 127.476 52.9682 127.52C53.0775 127.565 53.8356 128.047 54.653 128.593ZM153.375 128.614C154.892 129.655 155.081 129.933 154.725 130.597C154.381 131.237 153.881 131.37 151.82 131.37C149.443 131.37 148.357 130.936 148.39 130.001C148.402 129.671 150.944 127.561 151.484 127.433C151.554 127.416 152.405 127.948 153.375 128.614ZM57.4138 155.373C59.0933 165.193 60.4799 173.628 60.4946 174.118C60.5125 174.712 59.2361 176.411 56.6589 179.222L52.7965 183.434L51.5904 182.037C50.9269 181.269 49.1826 179.316 47.7141 177.697L45.0443 174.754L48.209 156.137C49.9498 145.897 51.3753 137.464 51.3761 137.397C51.3773 137.329 52.0491 137.329 52.8688 137.397L54.3596 137.52L57.4138 155.373ZM153.146 137.45C153.146 137.522 154.569 145.945 156.309 156.168L159.473 174.755L158.026 176.372C157.23 177.26 155.47 179.192 154.114 180.664L151.649 183.34L147.736 179.122L143.823 174.905L146.944 156.41C148.66 146.239 150.142 137.783 150.237 137.619C150.401 137.336 153.146 137.178 153.146 137.45Z" fill="white"/>
</svg>
