<svg width="50" height="50" viewBox="0 0 50 50" fill="none" xmlns="http://www.w3.org/2000/svg">
<path d="M19.8287 13.5316L21.0339 14.5054C23.0026 16.0961 23.2512 18.9995 21.5816 20.9023L21.4144 21.0929C20.2179 22.4565 19.8986 24.4705 21.0939 25.8336C22.237 27.1374 23.7712 28.2844 25.9998 29.534C27.7572 30.5193 29.9545 30.0518 31.2828 28.538L31.3992 28.4053C32.9827 26.6007 35.7133 26.3666 37.5805 27.8753L38.6989 28.779C40.3031 30.0752 40.8615 32.3376 39.7084 34.0468C38.6201 35.6599 37.4063 36.922 35.9734 37.9535C35.0594 38.6115 33.882 38.7578 32.7939 38.4656C22.1562 35.609 15.7209 30.419 11.1042 20.8061C10.7023 19.969 10.5706 19.0067 10.8966 18.137C11.5851 16.2999 12.8727 14.7528 14.863 13.2725C16.3478 12.1683 18.3905 12.3695 19.8287 13.5316Z" stroke="#16274A" stroke-width="2.08333"/>
<path d="M31.584 28.9795L38.9525 34.9333" stroke="#16274A" stroke-width="2.08333"/>
<path d="M14.3926 15.0859L21.761 21.0398" stroke="#16274A" stroke-width="2.08333"/>
</svg>
