<svg width="27" height="27" viewBox="0 0 27 27" fill="none" xmlns="http://www.w3.org/2000/svg">
<path d="M10.8036 6.90785L11.5488 7.50998C12.7661 8.4936 12.9199 10.2889 11.8875 11.4654L11.7841 11.5833C11.0442 12.4264 10.8468 13.6718 11.5859 14.5146C12.2927 15.3208 13.2414 16.03 14.6194 16.8027C15.706 17.4119 17.0647 17.1229 17.8861 16.1868L17.958 16.1048C18.9371 14.989 20.6256 14.8442 21.7801 15.7771L22.4717 16.3359C23.4636 17.1373 23.8089 18.5362 23.0959 19.5931C22.423 20.5905 21.6724 21.3709 20.7864 22.0088C20.2213 22.4156 19.4932 22.506 18.8204 22.3254C12.2428 20.559 8.26363 17.3499 5.40898 11.4059C5.16041 10.8884 5.07902 10.2933 5.28058 9.75552C5.70631 8.61962 6.5025 7.663 7.73316 6.74769C8.65123 6.06488 9.91434 6.18931 10.8036 6.90785Z" stroke="white"/>
<path d="M18.0723 16.459L22.6284 20.1404" stroke="white"/>
<path d="M7.44141 7.86914L11.9976 11.5506" stroke="white"/>
</svg>
