<svg width="205" height="143" viewBox="0 0 205 143" fill="none" xmlns="http://www.w3.org/2000/svg">
<path fill-rule="evenodd" clip-rule="evenodd" d="M47.4054 0.89292C46.4993 1.10777 44.6379 1.88184 43.2686 2.61216C35.1207 6.95931 32.0097 17.7766 36.6754 25.5351L38.0447 27.8119L34.2163 27.8174C30.8092 27.822 30.0753 27.9698 27.5539 29.1608C23.6823 30.9896 21.1494 33.4409 19.3432 37.107C16.7717 42.3271 16.9054 48.0513 19.708 52.7101L21.0777 54.9868H17.4611C11.6806 54.9868 7.2876 57.1519 3.86138 61.6893C1.53 64.777 0.693066 67.4983 0.699429 71.9712C0.704095 75.3604 0.854259 76.1098 2.02758 78.5989C2.75508 80.1419 4.19946 82.2917 5.23704 83.3757L7.12343 85.3464L5.23704 87.317C4.19946 88.401 2.75253 90.5508 2.02207 92.0938C0.823718 94.6253 0.693914 95.2949 0.693914 98.9338C0.693914 102.573 0.823718 103.242 2.02207 105.774C2.75253 107.317 4.19946 109.467 5.23704 110.551L7.12343 112.521L5.23704 114.492C-2.71661 122.801 -0.275795 136.127 10.1437 141.282L13.3756 142.881H102.289H191.201L194.407 141.295C198.268 139.385 200.672 136.927 202.541 132.979C203.755 130.414 203.883 129.757 203.883 126.109C203.883 122.47 203.753 121.8 202.555 119.269C201.825 117.726 200.378 115.576 199.34 114.492L197.454 112.521L199.279 110.614C205.613 103.998 205.613 93.8699 199.279 87.2537L197.454 85.3464L199.34 83.3757C200.378 82.2917 201.822 80.1419 202.549 78.5989C203.723 76.1098 203.873 75.3604 203.878 71.9712C203.886 65.9281 201.79 61.6413 197.086 58.0797C194.298 55.9689 191.918 55.1749 187.55 54.8976L183.941 54.6684L185.429 51.6702C186.816 48.8724 186.915 48.3994 186.915 44.6107C186.915 40.9327 186.789 40.283 185.573 37.7137C183.724 33.8069 181.294 31.3043 177.549 29.4521C174.905 28.1439 173.907 27.8891 170.713 27.707L166.974 27.4934L168.461 24.4952C169.848 21.6975 169.948 21.2245 169.948 17.4357C169.948 13.7577 169.821 13.1081 168.605 10.5388C166.737 6.5916 164.332 4.13269 160.471 2.2228L157.266 0.636882L103.159 0.569371C71.4046 0.529882 48.3717 0.663631 47.4054 0.89292ZM54.5174 7.73465C56.8475 8.42379 60.3616 11.9412 61.05 14.2736C62.225 18.2548 61.3966 21.4287 58.3988 24.4294C54.1072 28.7252 48.6631 28.7252 44.3715 24.4294C40.08 20.1336 40.08 14.6889 44.3715 10.3838C47.3473 7.39878 50.5525 6.56188 54.5174 7.73465ZM156.324 7.73465C159.97 8.81273 163.373 13.4834 163.373 17.4089C163.373 21.4572 159.931 26.0824 156.161 27.1006C154.732 27.4866 142.998 27.6407 109.488 27.7142L64.7248 27.8119L66.0945 25.5351C68.8645 20.9306 69.0283 15.136 66.531 10.0844L65.1142 7.21832H109.846C143.727 7.21832 155.002 7.34358 156.324 7.73465ZM122.65 17.4089V20.8058H129.437H136.224V17.4089V14.0121H129.437H122.65V17.4089ZM143.011 17.4089V20.8058H146.405H149.798V17.4089V14.0121H146.405H143.011V17.4089ZM53.6126 36.5095C52.8423 37.7902 52.097 39.5574 51.9566 40.4372C51.6299 42.4812 51.1404 42.4812 50.8138 40.4372C50.6734 39.5574 49.9281 37.7902 49.1577 36.5095L47.757 34.181H51.3852H55.0133L53.6126 36.5095ZM37.5496 34.9096C39.8797 35.5988 43.3938 39.1162 44.0822 41.4486C45.2573 45.4297 44.4288 48.6037 41.431 51.6044C37.1394 55.9002 31.6953 55.9002 27.4038 51.6044C23.1122 47.3086 23.1122 41.8639 27.4038 37.5588C30.3795 34.5737 33.5847 33.7368 37.5496 34.9096ZM71.4852 34.9096C75.1307 35.9877 78.5336 40.6584 78.5336 44.5839C78.5336 49.8452 73.6092 54.7745 68.353 54.7745C63.0968 54.7745 58.1723 49.8452 58.1723 44.5839C58.1723 41.9152 59.1428 39.762 61.3393 37.5588C64.3151 34.5737 67.5203 33.7368 71.4852 34.9096ZM173.292 34.9096C176.937 35.9877 180.34 40.6584 180.34 44.5839C180.34 48.6321 176.899 53.2574 173.129 54.2756C171.7 54.6616 159.966 54.8157 126.456 54.8892L81.6926 54.9868L83.0623 52.7101C85.8323 48.1056 85.9961 42.311 83.4988 37.2594L82.082 34.3933H126.814C160.695 34.3933 171.969 34.5186 173.292 34.9096ZM139.618 44.5839V47.9808H146.405H153.192V44.5839V41.187H146.405H139.618V44.5839ZM159.979 44.5839V47.9808H163.373H166.766V44.5839V41.187H163.373H159.979V44.5839ZM51.9566 48.7306C52.097 49.6104 52.8423 51.3776 53.6126 52.6583L55.0133 54.9868H51.3852H47.757L49.1577 52.6583C49.9281 51.3776 50.6734 49.6104 50.8138 48.7306C50.9546 47.8513 51.2117 47.1316 51.3852 47.1316C51.5587 47.1316 51.8157 47.8513 51.9566 48.7306ZM36.6448 63.6845C35.8745 64.9651 35.1292 66.7323 34.9888 67.6121C34.6622 69.6562 34.1726 69.6562 33.846 67.6121C33.7056 66.7323 32.9603 64.9651 32.1899 63.6845L30.7893 61.3559H34.4174H38.0455L36.6448 63.6845ZM70.5804 63.6845C69.8101 64.9651 69.0648 66.7323 68.9244 67.6121C68.5977 69.6562 68.1082 69.6562 67.7816 67.6121C67.6412 66.7323 66.8959 64.9651 66.1255 63.6845L64.7248 61.3559H68.353H71.9811L70.5804 63.6845ZM20.5819 62.0846C24.2274 63.1627 27.6303 67.8334 27.6303 71.7589C27.6303 77.0202 22.7058 81.9495 17.4496 81.9495C14.7814 81.9495 12.6329 80.9784 10.436 78.7794C6.14439 74.4836 6.14439 69.0388 10.436 64.7337C13.4117 61.7487 16.6169 60.9118 20.5819 62.0846ZM54.5174 62.0846C58.163 63.1627 61.5658 67.8334 61.5658 71.7589C61.5658 75.6844 58.163 80.3551 54.5174 81.4332C50.5402 82.6093 47.3693 81.7801 44.3715 78.7794C40.08 74.4836 40.08 69.0388 44.3715 64.7337C47.3473 61.7487 50.5525 60.9118 54.5174 62.0846ZM88.453 62.0846C90.7831 62.7737 94.2971 66.2912 94.9856 68.6236C96.1606 72.6047 95.3322 75.7786 92.3344 78.7794C90.1375 80.9784 87.9889 81.9495 85.3207 81.9495C80.0646 81.9495 75.1401 77.0202 75.1401 71.7589C75.1401 69.0902 76.1106 66.937 78.3071 64.7337C81.2828 61.7487 84.4881 60.9118 88.453 62.0846ZM190.26 62.0846C193.905 63.1627 197.308 67.8334 197.308 71.7589C197.308 75.6844 193.905 80.3551 190.26 81.4332C188.937 81.8242 177.663 81.9495 143.782 81.9495H99.0498L100.563 78.8978C101.982 76.0368 102.076 75.5918 102.076 71.7589C102.076 67.9259 101.982 67.4809 100.563 64.6199L99.0498 61.5683H143.782C177.663 61.5683 188.937 61.6935 190.26 62.0846ZM156.585 71.7589V75.1557H163.373H170.16V71.7589V68.362H163.373H156.585V71.7589ZM176.947 71.7589V75.1557H180.34H183.734V71.7589V68.362H180.34H176.947V71.7589ZM34.8416 75.3171C34.8416 75.8725 35.4775 77.5921 36.255 79.1386L37.6684 81.9495H34.4174H31.1664L32.5798 79.1386C33.3573 77.5921 33.9932 75.8725 33.9932 75.3171C33.9932 74.7613 34.1841 74.3065 34.4174 74.3065C34.6507 74.3065 34.8416 74.7613 34.8416 75.3171ZM68.7772 75.3171C68.7772 75.8725 69.413 77.5921 70.1906 79.1386L71.604 81.9495H68.353H65.1019L66.5154 79.1386C67.2929 77.5921 67.9288 75.8725 67.9288 75.3171C67.9288 74.7613 68.1197 74.3065 68.353 74.3065C68.5863 74.3065 68.7772 74.7613 68.7772 75.3171ZM20.5819 89.2596C24.2274 90.3376 27.6303 95.0083 27.6303 98.9338C27.6303 104.195 22.7058 109.124 17.4496 109.124C14.7814 109.124 12.6329 108.153 10.436 105.954C6.14439 101.659 6.14439 96.2138 10.436 91.9087C13.4117 88.9237 16.6169 88.0868 20.5819 89.2596ZM36.255 91.5541C35.4775 93.1006 34.8416 94.8202 34.8416 95.3756C34.8416 95.9314 34.6507 96.3862 34.4174 96.3862C34.1841 96.3862 33.9932 95.9314 33.9932 95.3756C33.9932 94.8202 33.3573 93.1006 32.5798 91.5541L31.1664 88.7432H34.4174H37.6684L36.255 91.5541ZM54.5174 89.2596C58.163 90.3376 61.5658 95.0083 61.5658 98.9338C61.5658 102.859 58.163 107.53 54.5174 108.608C50.5402 109.784 47.3693 108.955 44.3715 105.954C40.08 101.659 40.08 96.2138 44.3715 91.9087C47.3473 88.9237 50.5525 88.0868 54.5174 89.2596ZM70.1906 91.5541C69.413 93.1006 68.7772 94.8202 68.7772 95.3756C68.7772 95.9314 68.5863 96.3862 68.353 96.3862C68.1197 96.3862 67.9288 95.9314 67.9288 95.3756C67.9288 94.8202 67.2929 93.1006 66.5154 91.5541L65.1019 88.7432H68.353H71.604L70.1906 91.5541ZM88.453 89.2596C90.7831 89.9487 94.2971 93.4661 94.9856 95.7985C96.1606 99.7797 95.3322 102.954 92.3344 105.954C90.1375 108.153 87.9889 109.124 85.3207 109.124C80.0646 109.124 75.1401 104.195 75.1401 98.9338C75.1401 96.2652 76.1106 94.112 78.3071 91.9087C81.2828 88.9237 84.4881 88.0868 88.453 89.2596ZM190.26 89.2596C193.905 90.3376 197.308 95.0083 197.308 98.9338C197.308 102.859 193.905 107.53 190.26 108.608C188.937 108.999 177.663 109.124 143.782 109.124H99.0498L100.563 106.073C101.982 103.212 102.076 102.767 102.076 98.9338C102.076 95.1009 101.982 94.6559 100.563 91.7949L99.0498 88.7432H143.782C177.663 88.7432 188.937 88.8685 190.26 89.2596ZM156.585 98.9338V102.331H163.373H170.16V98.9338V95.537H163.373H156.585V98.9338ZM176.947 98.9338V102.331H180.34H183.734V98.9338V95.537H180.34H176.947V98.9338ZM34.8416 102.492C34.8416 103.047 35.4775 104.767 36.255 106.314L37.6684 109.124H34.4174H31.1664L32.5798 106.314C33.3573 104.767 33.9932 103.047 33.9932 102.492C33.9932 101.936 34.1841 101.481 34.4174 101.481C34.6507 101.481 34.8416 101.936 34.8416 102.492ZM68.7772 102.492C68.7772 103.047 69.413 104.767 70.1906 106.314L71.604 109.124H68.353H65.1019L66.5154 106.314C67.2929 104.767 67.9288 103.047 67.9288 102.492C67.9288 101.936 68.1197 101.481 68.353 101.481C68.5863 101.481 68.7772 101.936 68.7772 102.492ZM20.5819 116.435C24.2274 117.513 27.6303 122.183 27.6303 126.109C27.6303 131.37 22.7058 136.299 17.4496 136.299C14.7814 136.299 12.6329 135.328 10.436 133.129C6.14439 128.834 6.14439 123.389 10.436 119.084C13.4117 116.099 16.6169 115.262 20.5819 116.435ZM36.255 118.729C35.4775 120.276 34.8416 121.995 34.8416 122.551C34.8416 123.106 34.6507 123.561 34.4174 123.561C34.1841 123.561 33.9932 123.106 33.9932 122.551C33.9932 121.995 33.3573 120.276 32.5798 118.729L31.1664 115.918H34.4174H37.6684L36.255 118.729ZM54.5174 116.435C58.163 117.513 61.5658 122.183 61.5658 126.109C61.5658 130.034 58.163 134.705 54.5174 135.783C50.5402 136.959 47.3693 136.13 44.3715 133.129C40.08 128.834 40.08 123.389 44.3715 119.084C47.3473 116.099 50.5525 115.262 54.5174 116.435ZM70.1906 118.729C69.413 120.276 68.7772 121.995 68.7772 122.551C68.7772 123.106 68.5863 123.561 68.353 123.561C68.1197 123.561 67.9288 123.106 67.9288 122.551C67.9288 121.995 67.2929 120.276 66.5154 118.729L65.1019 115.918H68.353H71.604L70.1906 118.729ZM88.453 116.435C90.7831 117.124 94.2971 120.641 94.9856 122.973C96.1606 126.955 95.3322 130.129 92.3344 133.129C90.1375 135.328 87.9889 136.299 85.3207 136.299C80.0646 136.299 75.1401 131.37 75.1401 126.109C75.1401 123.44 76.1106 121.287 78.3071 119.084C81.2828 116.099 84.4881 115.262 88.453 116.435ZM190.26 116.435C193.905 117.513 197.308 122.183 197.308 126.109C197.308 130.034 193.905 134.705 190.26 135.783C188.937 136.174 177.663 136.299 143.782 136.299H99.0498L100.563 133.248C101.982 130.387 102.076 129.942 102.076 126.109C102.076 122.276 101.982 121.831 100.563 118.97L99.0498 115.918H143.782C177.663 115.918 188.937 116.043 190.26 116.435ZM156.585 126.109V129.506H163.373H170.16V126.109V122.712H163.373H156.585V126.109ZM176.947 126.109V129.506H180.34H183.734V126.109V122.712H180.34H176.947V126.109ZM34.8416 129.667C34.8416 130.222 35.4775 131.942 36.255 133.489L37.6684 136.299H34.4174H31.1664L32.5798 133.489C33.3573 131.942 33.9932 130.222 33.9932 129.667C33.9932 129.111 34.1841 128.656 34.4174 128.656C34.6507 128.656 34.8416 129.111 34.8416 129.667ZM68.7772 129.667C68.7772 130.222 69.413 131.942 70.1906 133.489L71.604 136.299H68.353H65.1019L66.5154 133.489C67.2929 131.942 67.9288 130.222 67.9288 129.667C67.9288 129.111 68.1197 128.656 68.353 128.656C68.5863 128.656 68.7772 129.111 68.7772 129.667Z" fill="white"/>
</svg>
