<svg width="158" height="158" viewBox="0 0 158 158" fill="none" xmlns="http://www.w3.org/2000/svg">
<rect width="158" height="158" rx="79" fill="#E8EAED"/>
<path fill-rule="evenodd" clip-rule="evenodd" d="M91.0627 35.1464C89.0457 35.5467 87.1311 36.5356 85.5699 37.9834L84.6156 38.8683L83.4709 38.1089C82.1846 37.2554 80.8619 36.6316 79.2269 36.1072C78.167 35.7673 77.7058 35.7496 68.417 35.6949C57.8786 35.6329 57.4036 35.6645 55.0472 36.5861C51.6008 37.934 48.5061 40.8425 46.956 44.1908C46.2072 45.8081 45.6945 47.6518 45.5593 49.2135C45.4607 50.3515 45.4839 50.4841 45.8478 50.8708C46.3154 51.3673 47.0118 51.4181 47.5352 50.9937C47.8077 50.7727 47.9443 50.3899 48.0661 49.5064C48.8254 43.9971 52.3651 39.8514 57.4305 38.5387C58.6129 38.2324 59.3485 38.209 67.8153 38.2086C77.6487 38.2081 77.9441 38.2307 80.0162 39.137C81.1787 39.6454 83.1444 40.927 83.1442 41.1764C83.1442 41.2705 82.9976 41.7327 82.8184 42.2032C82.0398 44.2476 82.0052 47.0251 82.7315 49.1904C83.4274 51.2651 85.108 53.5246 86.8397 54.7135L87.5728 55.2168V57.9762V60.7354L86.8102 60.9601C86.3909 61.0836 85.7006 61.4897 85.2761 61.8626L84.5046 62.5403L83.7591 62.1043C82.5464 61.395 81.5605 60.1483 80.7564 58.3068C79.1832 54.7042 78.6494 53.9713 77.4336 53.7435C75.944 53.4647 74.8493 54.1569 74.0711 55.8699C70.956 62.7256 63.3443 66.2472 55.8479 64.3009C53.3305 63.6472 52.3472 63.7718 51.4288 64.8609C50.6804 65.7485 50.6126 66.5704 50.6126 74.7558C50.6126 82.1697 50.6026 82.4063 50.272 82.7362C49.8138 83.1934 48.8339 83.1905 48.4393 82.7307C48.1646 82.4105 48.1368 81.3781 48.0578 68.5426L47.9726 54.6999L47.5989 54.327C47.0939 53.8232 46.2317 53.83 45.817 54.3411C45.5287 54.6965 45.5029 55.1142 45.5029 59.4405V64.1527L44.5345 64.8183C40.8565 67.3461 40.1745 72.8143 43.1206 76.1543C43.4941 76.5779 43.7997 77.0067 43.7997 77.1075C43.7997 77.4932 42.4138 80.261 41.6357 81.4291C40.6743 82.8727 38.8748 84.8044 37.4027 85.9735C36.2583 86.8823 35.8606 87.5621 36.042 88.2996C36.2501 89.1459 37.4722 90.8099 38.9038 92.1962C40.9735 94.2004 42.93 95.4266 45.5149 96.339L46.6339 96.734L44.985 98.3613C42.5509 100.763 41.2089 103.269 40.653 106.45C40.2701 108.641 40.2784 118.204 40.6641 119.333C40.9924 120.295 42.2581 121.502 43.2485 121.798C43.7617 121.951 52.9437 122 81.412 122H118.899L119.865 121.639C121.074 121.188 122.002 120.362 122.564 119.236L123 118.364V91.3198V64.2759L122.559 63.3931C122.035 62.3438 121.032 61.4379 119.951 61.0388C119.52 60.8795 119.141 60.7301 119.109 60.7065C119.076 60.6828 119.27 60.333 119.539 59.9292C120.738 58.1305 121.299 56.2355 121.291 54.0112C121.279 50.8295 120.369 48.6161 118.185 46.4525C116.647 44.93 115.734 44.3521 113.803 43.6802C112.709 43.2998 112.231 43.2346 110.481 43.2266C109.233 43.221 108.172 43.3039 107.756 43.4397C106.62 43.8106 105.411 44.3688 104.656 44.8711L103.94 45.3472L103.841 44.7072C103.489 42.4401 102.614 40.3052 101.97 40.1439C101.308 39.9782 100.825 40.1339 100.453 40.6324C100.104 41.1011 100.103 41.1174 100.412 41.9072C100.963 43.3162 101.349 44.8927 101.359 45.7738C101.393 48.764 99.3746 51.9177 96.5778 53.2431C89.8038 56.4536 82.7129 49.8028 85.3659 42.7272C85.758 41.6814 86.6179 40.5067 87.7092 39.5264C89.8468 37.6062 93.3041 37.0146 95.9418 38.1174C97.9582 38.9604 98.0868 38.9835 98.6056 38.5987C99.189 38.166 99.315 37.3052 98.8686 36.8018C98.4012 36.2747 96.5382 35.488 95.1123 35.2157C93.7501 34.9557 92.1614 34.9285 91.0627 35.1464ZM92.4391 39.66C92.2919 39.8071 92.1713 40.2085 92.171 40.5524C92.1707 41.0965 92.0897 41.2219 91.5481 41.5177C90.6868 41.9882 90.2578 42.8287 90.3489 43.8674C90.4618 45.1571 90.9671 45.6487 93.1386 46.5801C94.3479 47.0991 94.446 48.4582 93.2963 48.7641C92.7455 48.9107 91.8893 48.6271 91.512 48.173C91.2054 47.804 90.76 47.816 90.4095 48.2025C89.8008 48.8738 90.2996 49.8611 91.487 50.3352C92.1029 50.581 92.1715 50.668 92.1715 51.2009C92.1715 52.3008 93.3525 52.6049 93.8708 51.6384C93.9667 51.4597 94.0456 51.1363 94.0464 50.9199C94.0473 50.6418 94.2404 50.4164 94.7042 50.1521C95.5149 49.6903 95.9186 48.8852 95.9186 47.73C95.9186 46.2332 95.4199 45.6059 93.4798 44.6622C92.4519 44.1621 92.2481 43.993 92.2028 43.6012C92.1194 42.8775 92.7308 42.6772 94.0282 43.0032C94.9183 43.2271 95.0965 43.2288 95.3998 43.0168C96.1055 42.5236 95.6754 41.5656 94.6223 41.2846C94.2345 41.1811 94.1144 41.0263 94.0042 40.4869C93.7972 39.4753 93.0304 39.0701 92.4391 39.66ZM112.362 45.9421C114.027 46.369 115.168 47.0185 116.359 48.2192C118.039 49.9132 118.736 51.6153 118.74 54.0353C118.745 57.368 116.99 59.9863 113.729 61.5089C112.71 61.985 112.327 62.0676 110.836 62.1319C109.39 62.1944 108.944 62.1475 108.012 61.8346C104.966 60.8125 102.857 58.3246 102.367 55.1747C101.477 49.4578 106.82 44.5221 112.362 45.9421ZM109.81 47.9296C109.664 48.1373 109.544 48.5529 109.544 48.8529C109.544 49.2317 109.449 49.4286 109.234 49.4969C109.063 49.5511 108.699 49.8288 108.425 50.1144C107.973 50.5851 107.926 50.7423 107.926 51.7985C107.926 53.229 108.24 53.6442 109.885 54.3921C110.494 54.669 111.126 55.0142 111.29 55.1594C111.624 55.455 111.678 56.0759 111.412 56.5715C111.14 57.0792 109.888 57.024 109.235 56.4753C108.662 55.9945 108.383 55.9515 107.938 56.2761C107.219 56.8003 107.81 58.0423 108.978 58.4637C109.454 58.6357 109.544 58.7523 109.544 59.1966C109.544 59.8998 109.895 60.3422 110.451 60.3422C111.107 60.3422 111.418 60.0072 111.419 59.3016C111.419 58.7632 111.5 58.6418 112.057 58.345C112.808 57.9452 113.464 56.7944 113.458 55.8869C113.452 54.8769 112.893 53.9041 111.99 53.333C111.545 53.0514 111.112 52.8209 111.027 52.8209C110.637 52.8209 109.74 52.2547 109.662 51.959C109.615 51.7779 109.712 51.4628 109.877 51.2588C110.171 50.8971 110.21 50.8936 111.418 51.1212C112.64 51.3511 112.662 51.3489 112.975 50.9641C113.149 50.7493 113.292 50.5019 113.292 50.4142C113.292 50.1205 112.44 49.4639 111.927 49.3614C111.483 49.2729 111.418 49.187 111.418 48.6871C111.418 47.663 110.35 47.1599 109.81 47.9296ZM99.7567 55.328C99.974 56.8979 100.695 58.8177 101.544 60.0872L101.913 60.6397H96.0205H90.1276V58.5347V56.4299L92.3151 56.5185C93.7763 56.5776 94.8084 56.5358 95.4235 56.3924C96.4076 56.1631 98.5074 55.2467 99.0696 54.8014C99.5755 54.4004 99.6346 54.4458 99.7567 55.328ZM77.9183 58.2638C79.5601 61.891 80.4572 63.0781 82.4874 64.3089L83.5104 64.9289L83.447 71.2405L83.3838 77.552L82.9321 78.8084C81.3888 83.1018 76.7107 87.6975 71.3069 90.2289C69.4441 91.1016 67.9822 91.4595 66.8925 91.3101C65.0078 91.0514 61.778 89.4782 59.1499 87.5386C57.4474 86.2822 55.0037 83.9144 54.0836 82.6296L53.3378 81.5882V74.0035C53.3378 67.9762 53.3823 66.4187 53.5546 66.4187C53.6739 66.4187 54.5362 66.6234 55.4708 66.8734C56.9883 67.2795 57.4707 67.3281 59.9804 67.3281C62.4785 67.3281 62.98 67.2781 64.494 66.8777C65.4628 66.6215 67.005 66.0276 68.0708 65.5006C71.55 63.7794 74.2102 61.2033 75.8573 57.9602C76.3446 57.0007 76.809 56.2375 76.8894 56.2644C76.9696 56.2911 77.4327 57.1907 77.9183 58.2638ZM105.821 63.6925C107.385 64.4194 108.729 64.719 110.424 64.719C112.301 64.719 113.388 64.4912 114.976 63.765C116.032 63.2821 116.431 63.1893 117.448 63.1893C118.999 63.1893 119.71 63.5377 120.232 64.5552L120.615 65.301V91.3198V117.339L120.232 118.084C119.48 119.549 120.697 119.45 103.33 119.45C86.2298 119.45 87.2587 119.521 86.4265 118.278L86.0399 117.7V91.3198V64.9393L86.4265 64.3617C87.2258 63.1677 87.0383 63.1898 96.3679 63.1896L104.737 63.1893L105.821 63.6925ZM74.0418 64.2072C73.3203 64.3458 72.5843 65.0287 72.5843 65.5595C72.5843 65.7309 72.731 66.0518 72.9102 66.2724C73.2287 66.6645 73.2999 66.6737 76.0186 66.6737C78.5945 66.6737 78.8687 66.7041 79.7105 67.0837C80.7908 67.5705 81.3921 67.4534 81.7617 66.6839C82.2541 65.6586 81.4227 64.8499 79.3128 64.3014C78.2489 64.0248 75.2683 63.9716 74.0418 64.2072ZM91.0234 66.935C90.1196 67.1168 89.5708 67.5156 89.1098 68.3247C88.7632 68.9332 88.7521 69.1341 88.8003 73.8792C88.8476 78.545 88.8686 78.8271 89.2014 79.2716C89.3946 79.5296 89.7642 79.8983 90.0229 80.0911C90.4867 80.4368 90.6653 80.4421 103.127 80.483L115.761 80.5245L116.443 80.1424C116.891 79.891 117.257 79.4987 117.513 78.9961C117.894 78.2467 117.9 78.1393 117.853 73.459L117.805 68.6862L117.328 68.0622C116.34 66.7704 117.173 66.8469 103.753 66.8167C97.1492 66.8017 91.4207 66.8549 91.0234 66.935ZM45.4096 74.7272C45.2667 74.87 44.6903 74.1134 44.2597 73.2177C43.509 71.6563 43.8883 69.0363 45.0429 67.8093L45.4178 67.4107L45.4638 71.0189C45.4891 73.0035 45.4648 74.6723 45.4096 74.7272ZM58.3305 68.48C57.2413 68.7861 56.6538 70.1532 57.157 71.2115C57.8732 72.7176 60.0342 72.7377 60.7441 71.2448C61.064 70.5719 61.0667 70.3013 60.7612 69.5711C60.3704 68.6381 59.3686 68.1883 58.3305 68.48ZM76.0441 68.48C74.9333 68.7923 74.3674 70.1532 74.8908 71.254C75.5946 72.7343 77.7521 72.7287 78.4578 71.2448C78.7757 70.5758 78.7802 70.3006 78.4836 69.5925C78.0956 68.6655 77.0618 68.1941 76.0441 68.48ZM115.296 73.6851L115.25 77.8919L103.285 77.9356L91.3199 77.9793V73.7288V69.4783H103.331H115.341L115.296 73.6851ZM63.7756 76.8184C63.5678 76.9205 63.3109 77.2668 63.2048 77.5875C62.6887 79.1479 64.3887 81.81 66.2582 82.3689C67.103 82.6214 68.5276 82.6214 69.3724 82.3689C71.2458 81.8088 72.9418 79.1479 72.4237 77.5816C72.1902 76.8752 71.5081 76.5169 70.8629 76.7618C70.2782 76.9836 70.0872 77.2658 69.9467 78.1156C69.8627 78.6235 69.6456 79.0286 69.2405 79.4329C68.7321 79.9401 68.5455 80.0166 67.8153 80.0166C67.0808 80.0166 66.8993 79.9411 66.3745 79.4173C65.9669 79.0105 65.7387 78.5978 65.6643 78.1326C65.4781 76.971 64.6445 76.3911 63.7756 76.8184ZM46.0592 83.8964C46.7916 85.0007 47.7379 85.5152 49.1824 85.5943C50.4411 85.6629 51.1377 85.4501 51.8901 84.7665C52.2242 84.4629 52.25 84.4799 53.2424 85.6561C54.3417 86.959 55.9308 88.3846 57.7802 89.727L58.9585 90.5821V92.2452V93.908L56.0204 94.0008C53.7634 94.072 52.7485 94.1808 51.6421 94.4699C50.327 94.8135 50.0983 94.8277 49.0116 94.634C46.7088 94.2233 44.2911 93.2052 42.352 91.8296C41.2997 91.0832 39.6672 89.4697 39.125 88.6404L38.8179 88.1704L39.6482 87.4616C41.6763 85.7303 43.4592 83.5623 44.7925 81.2064L45.4178 80.1016L45.504 81.6453C45.5775 82.9621 45.6591 83.293 46.0592 83.8964ZM83.485 88.9601V94.334L83.0166 94.2296C82.7591 94.1721 81.5709 94.0751 80.3766 94.0141L78.205 93.9031L78.207 91.4216L78.2091 88.9402L79.3228 88.0184C80.4057 87.122 81.9083 85.5181 82.8778 84.2234C83.1403 83.873 83.3844 83.586 83.4201 83.586C83.4557 83.586 83.485 86.0043 83.485 88.9601ZM92.5162 84.3684C86.9126 85.8712 85.0118 93.0505 89.1297 97.1599C90.6653 98.6922 92.4035 99.414 94.556 99.4124C98.0012 99.4102 100.802 97.3683 101.943 94.0275C102.287 93.0199 102.306 90.7621 101.979 89.6883C100.732 85.5892 96.6086 83.2709 92.5162 84.3684ZM109.885 84.4165C108.401 84.8953 107.572 85.3918 106.544 86.4175C102.488 90.4655 104.306 97.4411 109.865 99.1561C111.515 99.665 113.966 99.4145 115.631 98.5665C118.361 97.1766 120.098 93.7153 119.616 90.6246C118.907 86.0801 114.145 83.042 109.885 84.4165ZM96.8554 87.1988C97.8695 87.7183 98.6388 88.4908 99.1825 89.5351C99.5145 90.1729 99.5801 90.5543 99.5777 91.8298C99.5743 93.5783 99.3079 94.2599 98.1921 95.3734C97.232 96.3315 96.3672 96.7151 94.9612 96.8067C93.3825 96.9097 92.2778 96.5492 91.195 95.5778C89.9461 94.457 89.5315 93.5019 89.5315 91.7448C89.5315 90.4608 89.5877 90.1987 90.037 89.3891C90.6519 88.2812 91.6009 87.4417 92.7547 86.9848C93.9577 86.5084 95.6837 86.5985 96.8554 87.1988ZM114.165 87.1217C116.015 88.023 117.128 89.8004 117.112 91.8298C117.096 93.8823 116.141 95.3961 114.276 96.3261C112.119 97.4013 109.492 96.8227 108.004 94.945C105.839 92.2112 107.014 88.1609 110.339 86.9002C111.301 86.5353 113.185 86.6444 114.165 87.1217ZM93.7795 87.2262C93.5089 87.4234 93.4334 87.7393 93.3638 88.9684L93.2786 90.47L91.774 90.555C90.0951 90.6498 89.787 90.8483 89.787 91.8359C89.787 92.7264 90.2767 93.01 91.9337 93.0796L93.3638 93.1394V94.5405C93.3638 96.1284 93.6213 96.5606 94.5676 96.5606C95.4771 96.5606 95.822 96.0182 95.8922 94.4779L95.9532 93.1391L97.2948 93.0782C98.8752 93.0065 99.3886 92.6679 99.3615 91.7152C99.3361 90.8249 98.8528 90.555 97.2838 90.555H95.9614L95.884 89.0843C95.8169 87.8099 95.7548 87.5717 95.4179 87.2996C94.9548 86.9253 94.237 86.8932 93.7795 87.2262ZM107.513 91.0028C107.319 91.2491 107.16 91.5515 107.16 91.6747C107.16 92.1773 107.578 92.7583 108.06 92.9261C108.733 93.16 115.334 93.1615 115.949 92.9279C116.885 92.573 117.121 91.7706 116.515 91.0028L116.162 90.555H112.014H107.866L107.513 91.0028ZM75.6455 92.8921L75.6411 94.8893L74.8791 95.8962C74.3947 96.5367 74.1172 97.078 74.1172 97.3835C74.1172 98.0397 74.6635 98.5437 75.3749 98.5437C75.9508 98.5437 76.5777 98.0202 77.3909 96.8606C77.6758 96.4544 77.6877 96.4529 79.9425 96.5613C81.1882 96.6211 82.4758 96.7314 82.8037 96.8064L83.3999 96.9427L83.485 107.729C83.5497 115.916 83.6214 118.605 83.7831 118.887C83.9003 119.091 83.996 119.302 83.996 119.356C83.996 119.41 74.9452 119.434 63.883 119.41L43.7702 119.365L43.3456 118.873L42.9212 118.38L42.9936 112.584C43.0527 107.853 43.1176 106.612 43.3468 105.834C44.5883 101.618 47.507 98.5653 51.6346 97.165C53.1804 96.6407 53.3932 96.613 56.4036 96.546L59.5546 96.4756L62.0243 100.27C63.3826 102.358 64.8057 104.379 65.1867 104.762C66.9049 106.491 69.7391 106.396 71.4033 104.554C72.6783 103.142 73.4579 101.971 73.4729 101.445C73.4985 100.55 72.629 99.9458 71.7712 100.262C71.5752 100.335 70.9753 100.977 70.4383 101.689C69.1538 103.392 68.3417 103.8 67.3402 103.245C67.1256 103.126 65.7269 101.197 64.2318 98.9591L61.5137 94.8893L61.5135 93.4848L61.5133 92.0801L62.152 92.3594C64.1358 93.2268 65.4285 93.6514 66.5934 93.8184C68.4424 94.0834 70.068 93.6571 73.0953 92.1133C74.3599 91.4682 75.4522 90.9303 75.5224 90.9177C75.5926 90.9051 75.6481 91.7937 75.6455 92.8921ZM92.9213 99.9861C91.4768 100.3 90.3042 100.935 89.2351 101.984C84.663 106.468 87.171 114.123 93.5201 115.064C95.082 115.295 96.482 115.05 98.0746 114.267C100.682 112.986 102.221 110.463 102.221 107.467C102.221 103.684 99.5308 100.507 95.8142 99.8994C94.5618 99.6948 94.2154 99.7051 92.9213 99.9861ZM111.077 99.8382C107.896 100.386 105.542 102.37 104.645 105.258C104.302 106.36 104.306 108.583 104.652 109.712C105.755 113.313 109.411 115.619 113.119 115.055C117.843 114.335 120.731 109.732 119.344 105.134C118.663 102.877 116.624 100.835 114.379 100.161C113.51 99.8999 111.73 99.7259 111.077 99.8382ZM96.2417 102.621C97.2998 102.91 98.4942 103.964 99.1096 105.15C99.5877 106.072 99.6657 106.395 99.6657 107.455C99.6657 111.615 95.2196 113.987 91.7247 111.691C87.9802 109.23 89.0641 103.559 93.4888 102.46C94.1782 102.288 95.2549 102.351 96.2417 102.621ZM114.13 102.806C117.351 104.224 118.138 108.524 115.642 111.069C113.684 113.066 110.438 113.074 108.405 111.088C107.401 110.107 106.928 108.949 106.926 107.467C106.92 103.727 110.685 101.29 114.13 102.806ZM91.5439 103.814C91.3393 103.896 91.0901 104.116 90.9903 104.302C90.6233 104.987 90.7859 105.468 91.7263 106.482L92.6436 107.471L91.7263 108.454C90.6645 109.593 90.5412 110.19 91.2271 110.874C91.9101 111.556 92.429 111.404 93.741 110.137L94.5441 109.361L95.4683 110.234C96.5851 111.288 97.1306 111.47 97.7644 111C98.0839 110.762 98.2336 110.479 98.2709 110.041C98.318 109.488 98.2198 109.31 97.3892 108.44L96.4543 107.462L97.3788 106.503C98.1315 105.721 98.3031 105.434 98.3031 104.959C98.3031 104.343 97.9782 103.935 97.3302 103.739C96.8511 103.593 96.4016 103.836 95.369 104.8L94.5426 105.572L93.7403 104.797C92.9688 104.052 92.3481 103.631 92.055 103.654C91.9785 103.66 91.7486 103.732 91.5439 103.814ZM108.602 104.479C107.783 104.823 107.528 105.905 108.112 106.55C108.382 106.847 108.685 106.872 112.041 106.872C115.449 106.872 115.697 106.851 116.017 106.532C116.476 106.075 116.467 105.154 115.999 104.732C115.676 104.439 115.316 104.404 112.295 104.371C110.454 104.351 108.792 104.4 108.602 104.479ZM108.191 108.361C107.686 108.769 107.671 109.668 108.16 110.156C108.519 110.513 108.66 110.527 112.086 110.527C115.342 110.527 115.67 110.5 115.999 110.203C116.467 109.78 116.476 108.86 116.017 108.402C115.698 108.084 115.449 108.062 112.118 108.062C108.977 108.062 108.517 108.097 108.191 108.361Z" fill="#16274A"/>
</svg>
