<svg width="158" height="158" viewBox="0 0 158 158" fill="none" xmlns="http://www.w3.org/2000/svg">
<rect width="158" height="158" rx="79" fill="#E8EAED"/>
<path fill-rule="evenodd" clip-rule="evenodd" d="M59.027 30.04C40.6157 31.9939 27.9748 49.0155 31.6309 66.9304C33.4365 75.7777 39.5811 83.8248 47.7225 88.0038C50.2301 89.2911 53.0723 90.3015 55.9578 90.9314C58.5674 91.5012 64.881 91.5585 67.5228 91.0365C69.8304 90.5807 72.8036 89.667 74.492 88.8949L75.8615 88.2686L76.1815 90.0616C76.3574 91.0478 76.7621 92.6628 77.0807 93.6506C77.7353 95.6798 77.7874 96.3627 77.3651 97.3665C77.1794 97.808 75.4541 99.6823 72.7034 102.431L68.3367 106.794L67.4471 106.774C65.7816 106.737 65.3933 106.999 61.8418 110.546C58.7308 113.655 58.506 113.926 58.6319 114.428C58.8385 115.25 59.294 115.638 60.0521 115.638C60.6659 115.638 61.0142 115.356 63.8542 112.57C65.5736 110.882 67.0975 109.501 67.2402 109.501C67.6655 109.501 74.7636 116.63 74.7636 117.058C74.7636 117.547 67.9841 124.334 67.059 124.77C66.005 125.267 64.8466 125.325 63.8119 124.932C62.5628 124.459 59.8704 121.815 59.3183 120.52C59.0953 119.997 58.77 119.461 58.5952 119.329C58.1336 118.981 57.1079 119.035 56.7626 119.425C56.166 120.1 56.1728 120.585 56.7972 121.91C57.2596 122.892 57.8279 123.609 59.2741 125.038C61.7526 127.485 62.7655 127.991 65.2098 128C68.0003 128.01 68.598 127.634 73.3468 122.886C76.7231 119.51 77.2701 118.88 77.4684 118.138C77.5941 117.667 77.6524 117.008 77.598 116.675C77.5036 116.097 77.7212 115.848 82.0687 111.558C87.6221 106.078 87.4337 106.176 90.5231 107.185C93.5457 108.173 95.2308 108.436 98.5134 108.433C100.592 108.431 102.035 108.326 103.237 108.089C109.706 106.815 115.239 103.646 119.737 98.6406C127.831 89.6315 129.338 76.7369 123.36 67.6296C119.986 62.4883 114.672 59.0761 108.361 57.9972C106.956 57.7572 105.803 57.7079 103.437 57.7865C100.028 57.8996 98.4625 58.1785 95.5206 59.1957C94.4586 59.563 93.4513 59.9068 93.2821 59.9597C93.0193 60.042 92.956 59.7666 92.8482 58.0761C92.6202 54.494 91.6617 51.0658 89.8133 47.2195C88.2043 43.8717 87.3937 43.1831 86.2309 44.1765C85.4906 44.8089 85.5673 45.4695 86.5837 47.2132C88.4244 50.3713 89.731 54.7227 89.9919 58.5643C90.077 59.8199 90.1077 61.0501 90.0601 61.2982C90.0052 61.5828 89.5501 62.0361 88.8266 62.5266L87.6799 63.304L86.6764 62.4022C82.0056 58.2034 75.1125 57.1393 69.8161 59.799L68.7632 60.3277L65.5364 57.151C63.7615 55.4039 61.4639 53.3403 60.4303 52.5654L58.5514 51.1564L59.1061 50.4622C59.9138 49.451 63.2291 46.3104 64.9787 44.8984C68.5721 41.999 72.8465 39.5498 76.3817 38.3649L78.0965 37.7902L78.8919 38.4052C79.3294 38.7437 80.2761 39.5186 80.9957 40.1274C81.8366 40.839 82.4779 41.2345 82.7905 41.2345C83.4429 41.2345 84.2249 40.43 84.2249 39.7589C84.2249 38.6286 79.7992 35.166 75.8256 33.1874C71.5549 31.061 67.7047 30.1257 62.7922 30.0216C61.1461 29.9867 59.4518 29.995 59.027 30.04ZM67.5591 33.3577C69.6694 33.7874 72.3894 34.6743 73.7982 35.3923L74.6671 35.835L73.8947 36.1562C70.379 37.6182 65.8194 40.4245 62.5991 43.1082C61.5902 43.949 59.7003 45.7247 58.3994 47.054L56.0339 49.4712L53.7398 48.1739C52.4782 47.4604 50.5805 46.5054 49.5228 46.0515L47.5998 45.2265L47.9779 43.9496C48.3836 42.5787 48.5425 38.8196 48.2606 37.2585L48.1138 36.4466L49.6122 35.6985C52.2909 34.3614 55.7991 33.3351 59.1235 32.9162C60.7491 32.7116 65.6431 32.9676 67.5591 33.3577ZM45.6041 39.8442C45.6008 41.31 45.1727 43.8622 44.8858 44.1266C44.8047 44.2012 43.9565 44.0602 43.0007 43.8131C42.0449 43.5659 41.024 43.3592 40.7319 43.3538C40.4398 43.3482 40.2009 43.2928 40.2009 43.2305C40.2009 42.7055 44.8093 38.358 45.366 38.358C45.5386 38.358 45.6064 38.7813 45.6041 39.8442ZM41.9345 46.52C42.6802 46.6885 43.2903 46.9127 43.2903 47.0184C43.2903 47.3729 41.926 48.8685 40.9016 49.6365C40.3436 50.0549 39.3656 50.6585 38.7284 50.978C37.4527 51.6175 35.3737 52.2256 35.3737 51.9593C35.3737 51.3746 36.8879 48.0188 37.7974 46.588L38.2374 45.8958L39.4081 46.0548C40.0518 46.1422 41.1887 46.3516 41.9345 46.52ZM48.306 48.6909C50.3672 49.5734 54.1032 51.6066 54.1032 51.8457C54.1032 51.9382 53.8534 52.3282 53.5479 52.7125C52.5356 53.9864 50.4911 57.2388 49.3036 59.465C45.68 66.2583 43.5245 74.0893 43.4751 80.6413L43.4664 81.7919L41.762 80.0235C39.1173 77.2798 36.9406 73.8645 35.6253 70.3957C34.2891 66.8716 33.6417 62.099 34.0024 58.4308C34.3507 54.889 34.209 55.1592 35.8557 54.899C39.544 54.3162 43.2438 52.0783 45.4154 49.1168C45.8875 48.4729 46.3398 47.9461 46.4203 47.9461C46.5008 47.9461 47.3494 48.2813 48.306 48.6909ZM58.7254 54.8969C59.7408 55.6612 61.8708 57.561 63.4585 59.1185L66.3454 61.9504L65.3595 62.9543C62.3224 66.047 60.8926 69.8615 61.1056 74.3033C61.2585 77.4967 61.9051 79.2434 64.423 83.2644C64.9302 84.0744 65.6335 85.4983 65.9859 86.4285C66.5701 87.971 66.5979 88.1369 66.3023 88.3118C66.1147 88.4228 64.3512 88.5024 62.1164 88.5009C57.9129 88.498 56.5941 88.3093 53.2343 87.2306C51.4863 86.6693 48.0127 85.0547 47.1955 84.4234C46.2206 83.6706 46.2144 78.2121 47.183 73.5479C48.2484 68.4173 50.3421 63.1571 53.188 58.4619C54.6626 56.0288 56.4448 53.5146 56.6979 53.5102C56.7976 53.5085 57.7099 54.1325 58.7254 54.8969ZM108.596 60.9943C114.679 62.2256 119.623 66.014 122.174 71.4002C126.312 80.1349 123.736 91.068 115.778 98.5472C112.04 102.06 107.638 104.309 102.541 105.307C100.916 105.625 96.0297 105.622 94.5551 105.302C93.9179 105.164 92.5712 104.783 91.5623 104.455C89.1166 103.661 87.508 103.643 85.8662 104.392C84.8911 104.837 84.0037 105.617 80.2626 109.319L75.8177 113.717L73.2191 111.132L70.6205 108.545L74.9884 104.181C79.9309 99.2433 80.3624 98.6327 80.5121 96.3657C80.5843 95.2723 80.5092 94.7567 80.1073 93.5852C79.329 91.3163 79.0002 89.842 78.8297 87.8556C78.0071 78.2696 83.5107 68.5802 92.6156 63.5842C94.6947 62.4434 97.8502 61.3272 100.175 60.9101C102.523 60.4892 106.285 60.5268 108.596 60.9943ZM79.8934 61.7667C81.4904 62.2517 82.8754 63.0049 84.3228 64.1758L85.3883 65.0378L83.7928 66.7651C81.6852 69.0471 80.2251 71.1035 78.9747 73.5516C78.4109 74.6549 77.9058 75.5583 77.8521 75.5587C77.7984 75.5593 77.5462 75.0204 77.2915 74.3612C76.418 72.0999 74.1772 67.9832 72.3597 65.3005C70.3027 62.2643 70.3023 62.5263 72.3645 61.857C74.7358 61.0873 77.5453 61.0535 79.8934 61.7667ZM70.0054 66.9784C72.793 71.1193 74.8598 75.4084 75.9245 79.263C76.2856 80.57 76.3105 80.9135 76.129 82.0757C76.0152 82.8038 75.9222 83.7459 75.9222 84.1695C75.9222 84.8731 75.8511 84.9811 75.1015 85.4168C74.2494 85.9123 70.7993 87.3081 69.9106 87.5171C69.4358 87.6287 69.3869 87.5764 69.1747 86.7278C68.8665 85.4958 67.2689 82.2013 66.2736 80.7459C63.5097 76.7037 63.1884 71.9003 65.4024 67.7161C65.9617 66.6591 67.8383 64.2458 68.1011 64.2458C68.1367 64.2458 68.9936 65.4753 70.0054 66.9784ZM101.699 65.7657C97.2238 66.4809 93.3242 68.5443 89.921 71.9983C86.8712 75.0939 85.011 78.4804 84.1854 82.4403C83.6766 84.8808 83.7787 88.4182 84.4157 90.4212C86.2263 96.113 90.8299 99.8661 96.7212 100.453C101.979 100.977 107.208 99.2247 111.656 95.4491C114.876 92.7167 117.21 89.0643 118.447 84.8248C118.82 83.5458 118.884 82.8761 118.884 80.2578C118.884 77.5774 118.827 77.0079 118.432 75.7514C116.9 70.8792 113.191 67.3149 108.361 66.0729C106.942 65.708 103.154 65.5335 101.699 65.7657ZM106.385 68.6275C106.781 68.7403 106.577 68.9959 104.258 71.2934L101.693 73.8346L99.7005 71.8487L97.7077 69.8628L99.3175 69.3447C100.203 69.0597 101.361 68.7552 101.892 68.6682C103.051 68.4779 105.774 68.4532 106.385 68.6275ZM111.047 70.3731C112.127 71.0631 113.744 72.6927 114.405 73.7564L114.893 74.5418L111.769 77.6399L108.646 80.738L106.237 78.3402L103.829 75.9426L106.913 72.8746C108.61 71.1873 110.034 69.8068 110.08 69.8068C110.125 69.8068 110.56 70.0617 111.047 70.3731ZM96.9235 78.577L94.1744 81.3121L91.9129 79.072L89.6513 76.8318L89.9793 76.26C90.42 75.4914 93.1865 72.6944 94.2557 71.9364L95.1147 71.3273L97.3937 73.5845L99.6725 75.8419L96.9235 78.577ZM116.08 80.1619C116.082 82.2142 115.677 84.442 115.02 85.9922L114.703 86.7411L112.69 84.7489L110.677 82.7567L113.228 80.2183C114.955 78.499 115.827 77.7553 115.929 77.9141C116.011 78.043 116.079 79.0545 116.08 80.1619ZM104.261 80.4043L106.623 82.7559L103.869 85.4862L101.115 88.2163L98.7065 85.8189L96.2983 83.4215L98.9964 80.737C100.48 79.2607 101.74 78.0526 101.796 78.0526C101.852 78.0526 102.961 79.1109 104.261 80.4043ZM89.5862 85.8639C87.5175 87.9225 87.0042 88.3438 86.8961 88.0723C86.6557 87.4692 86.7353 84.3157 87.0255 82.9425C87.1815 82.2042 87.4972 81.097 87.7274 80.482L88.1454 79.364L90.1438 81.342L92.1423 83.3201L89.5862 85.8639ZM111.053 87.1501L113.256 89.3442L112.691 90.1621C111.964 91.2149 109.643 93.5198 108.583 94.2422L107.759 94.8035L105.453 92.5192L103.147 90.235L105.8 87.5954C107.259 86.1437 108.542 84.956 108.651 84.956C108.76 84.956 109.841 85.9433 111.053 87.1501ZM96.7299 87.8828L99.0921 90.2344L95.9388 93.3616L92.7857 96.4889L91.5464 95.6478C90.3754 94.8531 88.866 93.2347 88.278 92.1437C88.0166 91.6586 88.0643 91.5984 91.0882 88.5908C92.7801 86.9081 94.2103 85.5312 94.2661 85.5312C94.3221 85.5312 95.4308 86.5894 96.7299 87.8828ZM103.229 94.3373L105.138 96.2401L104.384 96.5581C102.686 97.2743 100.754 97.64 98.5901 97.655C97.4111 97.663 96.3371 97.6028 96.2037 97.5209C96.0363 97.4181 96.7299 96.6066 98.4412 94.9032C99.8054 93.5455 101.011 92.4346 101.121 92.4346C101.231 92.4346 102.179 93.2909 103.229 94.3373Z" fill="#16274A"/>
</svg>
