<svg width="48" height="48" viewBox="0 0 48 48" fill="none" xmlns="http://www.w3.org/2000/svg">
<path d="M0 10.8837C0 4.87281 4.87281 0 10.8837 0H37.1163C43.1272 0 48 4.87281 48 10.8837V37.1163C48 43.1272 43.1272 48 37.1163 48H10.8837C4.87281 48 0 43.1272 0 37.1163V10.8837Z" fill="#00AB85"/>
<path d="M26.4497 19.0197L27.0459 19.6159C26.8706 18.8794 27.1161 18.1429 27.607 17.6519L27.6772 17.5818L28.6942 18.5988C28.4838 18.8092 27.6772 19.6159 28.1682 20.668C28.3084 20.9485 28.5539 21.194 28.7994 21.4395L30.6231 23.2632L29.6411 24.2451L25.4327 20.0367L26.4497 19.0197Z" fill="white"/>
<path d="M15.5078 29.9616L14.4908 30.9787L16.4547 32.9426C16.8405 33.2582 17.121 33.6791 17.2964 34.135C17.4366 34.626 17.2964 35.1169 16.9457 35.4676C16.2092 36.2041 15.613 35.8183 15.1571 35.3624L12.632 32.8374L11.615 33.8544L14.1751 36.4145C14.9116 37.151 15.3324 37.3614 15.8936 37.4316C16.4897 37.4666 17.0859 37.2211 17.4717 36.7652C17.9627 36.2743 18.2783 35.6079 18.3835 34.9416L18.7342 35.2923L19.7863 34.2402L15.5078 29.9616Z" fill="white"/>
<path d="M10.5629 33.7143C9.26533 33.3986 7.86252 33.8195 6.91563 34.7664C5.40761 36.2744 5.47775 37.8876 6.45971 38.8696C7.44168 39.8515 8.45871 39.7463 9.82645 38.9397L10.8084 38.3786C11.7904 37.8175 12.3164 37.6421 12.7022 38.0279C13.2633 38.589 12.8425 39.4307 12.3515 39.9217C11.6852 40.588 10.6681 40.9036 9.75631 40.6932L9.19519 42.2363C10.6331 42.6221 12.1411 42.1662 13.123 41.1141C14.2102 40.0269 15.1571 38.1682 13.6842 36.6952C12.5269 35.5379 11.2293 36.0639 10.0719 36.8004L9.26533 37.2563C8.49378 37.7473 7.89759 37.9227 7.51182 37.5369C6.88056 36.9056 7.61703 36.0289 7.86252 35.7834C8.45871 35.1872 9.37054 34.9768 10.2122 35.2573L10.5629 33.7143Z" fill="white"/>
<path d="M27.0108 14.9517L30.9737 18.9146C31.605 19.5459 32.0609 20.0719 31.1842 20.9487C30.9737 21.1591 30.7633 21.2994 30.5178 21.4748L31.5699 22.5269C31.8154 22.3515 32.096 22.1411 32.3415 21.8956C34.0599 20.1772 33.2182 18.9848 32.3064 18.0729L28.098 13.8645L27.0108 14.9517Z" fill="white"/>
<path d="M20.2423 26.1392C19.5409 26.0691 18.8044 26.3145 18.2783 26.8406C17.8224 27.2965 17.5769 27.8927 17.612 28.559L17.2613 28.2083L16.2092 29.2604L21.8204 34.8717L22.8375 33.8546L21.0839 32.1011C21.7152 32.1011 22.3114 31.8556 22.7322 31.4348C23.3284 30.8386 23.6441 29.9618 23.4336 29.1202C23.2934 28.4188 22.9076 27.7524 22.4166 27.2614C21.8906 26.5951 21.0839 26.2093 20.2423 26.1392ZM21.6451 30.558C21.0489 31.1542 20.102 31.049 19.3655 30.3125C18.594 29.541 18.4888 28.5941 19.0849 27.9979C19.6811 27.4017 20.628 27.5069 21.3996 28.2785C22.1711 29.05 22.2763 29.9268 21.6451 30.558Z" fill="white"/>
<path d="M37.8475 7.34131C37.3916 7.79723 37.1461 8.39342 37.111 9.05975L35.0068 6.95554L33.9898 7.97258L39.9868 13.9696L41.0038 12.9525L40.583 12.5317C41.2142 12.5317 41.8806 12.2862 42.3014 11.7952C43.2132 10.8834 43.4237 9.20003 41.9157 7.69202C40.5128 6.35935 38.8295 6.35935 37.8475 7.34131ZM41.2142 11.0588C40.6181 11.6549 39.6361 11.5147 38.8996 10.7782C38.1281 10.0066 38.0229 9.05975 38.6191 8.46356C39.2153 7.86737 40.1621 7.97258 40.9337 8.74412C41.6702 9.48059 41.8104 10.4626 41.2142 11.0588Z" fill="white"/>
<path d="M26.3445 25.9986C25.7483 26.6649 24.7313 26.7 24.1 26.0688L27.2563 22.9124C26.0639 21.72 24.3104 20.8784 22.6621 22.5267C21.5048 23.684 21.4697 25.6128 22.6271 26.7702C22.6621 26.8052 22.6972 26.8403 22.7673 26.9104C24.2403 28.3834 26.0289 28.208 27.1511 27.0858C28.0629 26.2441 28.4136 24.9816 28.098 23.8243L26.8004 24.2802C26.9407 24.8413 26.8004 25.5427 26.3445 25.9986ZM23.5389 23.3333C24.0299 22.8423 24.8715 22.7722 25.3976 23.2281L23.3635 25.2621C22.9076 24.6659 23.0128 23.8593 23.5389 23.3333Z" fill="white"/>
<path d="M33.8495 11.4097C33.3936 11.9358 33.3235 12.7775 33.2884 13.2334C32.8325 13.2685 31.9908 13.3386 31.4647 13.7945C30.5178 14.6011 30.588 15.6532 31.4998 16.5651C32.2363 17.3015 33.4637 17.2665 34.7613 17.3015C35.9537 17.3015 37.3215 17.3366 37.3215 17.3366C37.3215 17.3366 37.3215 15.9338 37.2864 14.7765C37.2864 13.4438 37.2513 12.2164 36.5499 11.5149C35.7082 10.533 34.6561 10.4628 33.8495 11.4097Z" fill="white"/>
</svg>
