<svg width="15" height="10" viewBox="0 0 15 10" fill="none" xmlns="http://www.w3.org/2000/svg">
<path d="M12.4469 5.6425C12.2044 5.33625 12.2737 5.2 12.4469 4.92625C12.45 4.92313 14.4519 2.15688 14.6581 1.21875L14.6594 1.21813C14.7619 0.87625 14.6594 0.625 14.1637 0.625H12.5237C12.1062 0.625 11.9137 0.840625 11.8106 1.08188C11.8106 1.08188 10.9756 3.08063 9.79437 4.37625C9.41312 4.75063 9.23687 4.87063 9.02875 4.87063C8.92625 4.87063 8.76687 4.75063 8.76687 4.40875V1.21813C8.76687 0.808125 8.65 0.625 8.30437 0.625H5.72562C5.46375 0.625 5.30812 0.81625 5.30812 0.994375C5.30812 1.38313 5.89875 1.4725 5.96 2.56625V4.93938C5.96 5.45938 5.86562 5.555 5.65625 5.555C5.09875 5.555 3.74562 3.54813 2.94375 1.25125C2.78187 0.805625 2.62375 0.625625 2.20312 0.625625H0.5625C0.094375 0.625625 0 0.84125 0 1.0825C0 1.50875 0.5575 3.62813 2.5925 6.42813C3.94875 8.33938 5.85875 9.375 7.59625 9.375C8.64062 9.375 8.76812 9.145 8.76812 8.74938C8.76812 6.92313 8.67375 6.75063 9.19687 6.75063C9.43937 6.75063 9.85687 6.87063 10.8319 7.7925C11.9462 8.88563 12.1294 9.375 12.7531 9.375H14.3931C14.8606 9.375 15.0975 9.145 14.9612 8.69125C14.6494 7.73688 12.5419 5.77375 12.4469 5.6425Z" fill="#16274A"/>
</svg>
