<svg width="15" height="12" viewBox="0 0 15 12" fill="none" xmlns="http://www.w3.org/2000/svg">
<path d="M14.6683 2.20563L14.6871 2.32813C14.5058 1.68501 14.0164 1.18876 13.3946 1.00813L13.3814 1.00501C12.2121 0.687509 7.50643 0.687509 7.50643 0.687509C7.50643 0.687509 2.81268 0.681259 1.63143 1.00501C0.997684 1.18876 0.507684 1.68501 0.329559 2.31501L0.326434 2.32813C-0.110441 4.61001 -0.113566 7.35188 0.345809 9.79501L0.326434 9.67126C0.507684 10.3144 0.997059 10.8106 1.61893 10.9913L1.63206 10.9944C2.80018 11.3125 7.50706 11.3125 7.50706 11.3125C7.50706 11.3125 12.2002 11.3125 13.3821 10.9944C14.0164 10.8106 14.5064 10.3144 14.6846 9.68439L14.6877 9.67126C14.8864 8.61001 15.0002 7.38876 15.0002 6.14126C15.0002 6.09563 15.0002 6.04938 14.9996 6.00313C15.0002 5.96063 15.0002 5.91001 15.0002 5.85938C15.0002 4.61126 14.8864 3.39001 14.6683 2.20563V2.20563ZM6.00518 8.28188V3.72376L9.92143 6.00626L6.00518 8.28188Z" fill="#16274A"/>
</svg>
